<?xml version="1.0" encoding="UTF-8" standalone="no" ?>
<!DOCTYPE svg PUBLIC "-//W3C//DTD SVG 1.1//EN" "http://www.w3.org/Graphics/SVG/1.1/DTD/svg11.dtd">
<svg xmlns="http://www.w3.org/2000/svg" xmlns:xlink="http://www.w3.org/1999/xlink" version="1.1" width="1080" height="1080" viewBox="0 0 1080 1080" xml:space="preserve">
<desc>Created with Fabric.js 5.2.4</desc>
<defs>
</defs>
<rect x="0" y="0" width="100%" height="100%" fill="transparent"></rect>
<g transform="matrix(1 0 0 1 540 540)" id="8df4137e-ca32-4239-8a2f-b028af07cdcc"  >
<rect style="stroke: none; stroke-width: 1; stroke-dasharray: none; stroke-linecap: butt; stroke-dashoffset: 0; stroke-linejoin: miter; stroke-miterlimit: 4; fill: rgb(255,255,255); fill-rule: nonzero; opacity: 1; visibility: hidden;" vector-effect="non-scaling-stroke"  x="-540" y="-540" rx="0" ry="0" width="1080" height="1080" />
</g>
<g transform="matrix(1 0 0 1 540 540)" id="5aecc3c8-8904-44bf-beaf-f7214ad71774"  >
</g>
<g transform="matrix(0.44 0 0 0.44 270.68 506.08)"  >
<g style="" vector-effect="non-scaling-stroke"   >
		<g transform="matrix(0.13 0 0 -0.13 0 -106.93)"  >
<path style="stroke: none; stroke-width: 1; stroke-dasharray: none; stroke-linecap: butt; stroke-dashoffset: 0; stroke-linejoin: miter; stroke-miterlimit: 4; fill: rgb(0,0,0); fill-rule: nonzero; opacity: 1;" vector-effect="non-scaling-stroke"  transform=" translate(-5401.52, -6243.38)" d="M 5070 8749 C 4425 8710 3714 8493 3130 8157 C 2766 7948 2454 7707 2145 7396 C 1491 6738 1052 5900 890 5000 C 838 4713 828 4597 823 4250 C 821 4066 823 3875 827 3825 L 835 3735 L 869 3732 L 903 3729 L 897 3787 C 893 3819 887 3946 884 4070 C 840 5602 1610 7078 2900 7937 C 3310 8210 3779 8421 4250 8544 C 4679 8657 5043 8698 5505 8687 C 5794 8680 5918 8669 6155 8630 C 6940 8500 7679 8157 8315 7629 C 8455 7513 8758 7208 8876 7065 C 9345 6497 9657 5860 9819 5140 C 9898 4784 9926 4459 9916 4003 L 9910 3730 L 9939 3730 C 9964 3730 9968 3734 9974 3768 C 9987 3848 9980 4508 9965 4657 C 9871 5551 9499 6423 8916 7120 C 8810 7246 8562 7498 8420 7623 C 7649 8300 6664 8703 5665 8750 C 5445 8761 5247 8760 5070 8749 z" stroke-linecap="round" />
</g>
		<g transform="matrix(0.13 0 0 -0.13 28.82 -49.96)"  >
<path style="stroke: none; stroke-width: 1; stroke-dasharray: none; stroke-linecap: butt; stroke-dashoffset: 0; stroke-linejoin: miter; stroke-miterlimit: 4; fill: rgb(0,0,0); fill-rule: nonzero; opacity: 1;" vector-effect="non-scaling-stroke"  transform=" translate(-5617.63, -5816.11)" d="M 5110 8277 L 5110 8122 L 5085 8116 C 5071 8112 5060 8103 5060 8095 C 5060 8086 5071 8075 5085 8070 C 5107 8062 5110 8054 5110 8016 L 5110 7971 L 5068 7968 C 5013 7964 5002 7935 5050 7919 C 5090 7905 5094 7939 5000 7480 C 4978 7373 4949 7238 4937 7180 L 4914 7075 L 4783 7072 L 4653 7069 L 4647 7099 C 4643 7116 4635 7200 4628 7285 C 4618 7418 4613 7443 4598 7451 C 4582 7460 4580 7477 4580 7620 L 4580 7780 L 4671 7780 L 4761 7780 L 4758 7818 L 4755 7855 L 4665 7856 L 4575 7856 L 4572 7948 L 4569 8040 L 4540 8040 L 4511 8040 L 4508 7948 L 4505 7855 L 4418 7859 L 4330 7862 L 4330 7822 L 4330 7781 L 4418 7778 L 4505 7775 L 4508 7617 L 4511 7460 L 4486 7449 C 4456 7435 4453 7418 4444 7218 L 4438 7070 L 4397 7070 C 4344 7070 4300 7041 4245 6970 C 4175 6879 4102 6821 3955 6740 C 3710 6605 3654 6556 3611 6445 C 3560 6311 3498 6175 3469 6132 C 3451 6106 3398 6047 3350 6000 C 3275 5926 3257 5902 3218 5820 C 3142 5660 3094 5610 2897 5489 C 2844 5456 2793 5418 2784 5405 C 2760 5369 2731 5285 2715 5209 C 2705 5164 2687 5119 2663 5082 C 2643 5051 2607 4980 2584 4925 C 2554 4856 2530 4816 2506 4795 C 2487 4779 2459 4754 2443 4740 C 2421 4721 2406 4689 2381 4610 C 2341 4485 2306 4418 2236 4342 C 2140 4237 2128 4219 2141 4204 C 2161 4180 2176 4188 2248 4264 C 2333 4354 2392 4450 2435 4572 C 2453 4623 2471 4673 2475 4682 C 2479 4692 2498 4704 2518 4710 C 2563 4722 2571 4722 2588 4711 C 2599 4704 2598 4695 2582 4663 C 2571 4641 2554 4618 2546 4611 C 2537 4603 2530 4591 2530 4584 C 2530 4552 2560 4575 2615 4652 C 2661 4714 2691 4744 2744 4777 C 2826 4830 2878 4856 2886 4848 C 2889 4845 2879 4818 2865 4789 C 2844 4749 2772 4672 2569 4471 C 2421 4325 2300 4199 2300 4193 C 2300 4186 2310 4180 2321 4180 C 2342 4180 2373 4207 2650 4475 C 2764 4585 2785 4602 2788 4583 C 2794 4544 2754 4487 2607 4327 C 2466 4172 2418 4108 2433 4093 C 2450 4077 2518 4130 2609 4231 C 2825 4469 2827 4471 2856 4601 C 2865 4642 2887 4700 2905 4730 C 3027 4937 3069 5012 3089 5062 C 3118 5134 3130 5144 3175 5136 C 3209 5129 3210 5128 3210 5080 C 3210 5011 3168 4885 3119 4810 C 3088 4762 3074 4725 3059 4656 C 3034 4536 3025 4520 2931 4417 C 2861 4341 2851 4326 2860 4310 C 2866 4299 2875 4290 2880 4290 C 2884 4290 2923 4328 2966 4375 C 3009 4422 3068 4479 3099 4502 C 3194 4573 3341 4701 3416 4777 C 3489 4851 3544 4940 3575 5038 C 3591 5086 3599 5095 3659 5134 C 3696 5157 3748 5203 3775 5236 C 3851 5328 3903 5380 3912 5374 C 3925 5365 3921 5321 3899 5239 C 3880 5170 3870 5152 3804 5075 C 3763 5027 3730 4984 3730 4980 C 3730 4966 3767 4949 3784 4956 C 3792 4959 3802 4972 3806 4983 C 3810 4995 3834 5029 3861 5057 C 3897 5098 3916 5131 3941 5201 C 3976 5299 3990 5320 4021 5320 C 4050 5320 4053 5300 4035 5229 C 4013 5142 4001 5111 3973 5073 C 3944 5034 3944 5023 3972 5014 C 4005 5004 4034 5048 4075 5173 C 4120 5313 4123 5318 4168 5326 C 4220 5335 4257 5356 4265 5381 C 4278 5421 4256 5423 4182 5391 C 4098 5354 4023 5349 3997 5378 C 3972 5405 3976 5417 4018 5444 C 4066 5474 4148 5565 4156 5597 C 4170 5653 4142 5640 4023 5537 C 3878 5410 3855 5404 3920 5511 C 3962 5579 3965 5587 3951 5609 C 3944 5620 3936 5619 3907 5601 C 3878 5583 3868 5568 3855 5522 C 3831 5441 3768 5324 3715 5263 C 3674 5216 3586 5160 3573 5173 C 3570 5176 3609 5242 3660 5320 C 3754 5464 3767 5491 3796 5593 C 3809 5642 3818 5655 3853 5678 C 3950 5740 4014 5796 4060 5859 C 4086 5895 4138 5950 4175 5980 C 4297 6081 4373 6191 4341 6223 C 4333 6231 4319 6221 4293 6190 C 4213 6096 4060 5970 4026 5970 C 4019 5970 4005 5961 3994 5949 C 3977 5930 3976 5927 3992 5916 C 4008 5904 4008 5902 3991 5874 C 3967 5835 3914 5790 3847 5751 C 3773 5709 3756 5685 3735 5598 C 3713 5508 3698 5477 3621 5370 C 3587 5323 3555 5267 3549 5245 C 3515 5112 3464 5026 3360 4926 C 3308 4876 3282 4840 3298 4840 C 3303 4840 3331 4858 3361 4881 C 3437 4938 3450 4944 3450 4925 C 3450 4909 3096 4550 3081 4550 C 3066 4550 3141 4745 3175 4795 C 3215 4852 3240 4920 3265 5038 C 3285 5130 3299 5156 3324 5147 C 3343 5140 3346 5090 3328 5072 C 3322 5066 3319 5058 3322 5055 C 3340 5036 3390 5135 3390 5189 C 3390 5214 3379 5215 3342 5196 C 3312 5181 3180 5174 3180 5188 C 3180 5204 3238 5284 3299 5353 C 3333 5390 3376 5447 3396 5478 C 3416 5509 3454 5558 3480 5585 C 3507 5613 3539 5658 3552 5685 C 3565 5713 3587 5751 3603 5771 C 3635 5814 3637 5824 3610 5815 C 3592 5809 3590 5812 3594 5832 C 3597 5845 3602 5880 3605 5910 C 3608 5940 3618 5996 3626 6033 C 3641 6097 3645 6103 3703 6152 C 3789 6222 3845 6292 3890 6385 C 3928 6462 3932 6466 3995 6499 C 4073 6539 4102 6571 4125 6642 C 4163 6758 4259 6883 4387 6981 L 4443 7025 L 4724 7025 C 4901 7025 5007 7021 5010 7015 C 5013 7010 4995 6995 4971 6983 C 4913 6953 4906 6946 4925 6930 C 4937 6920 4946 6920 4966 6929 C 5029 6957 5084 6933 5100 6867 C 5119 6792 5128 6780 5184 6755 C 5235 6732 5237 6730 5242 6686 C 5251 6608 5294 6567 5375 6558 C 5417 6554 5419 6581 5378 6604 C 5320 6637 5300 6661 5300 6697 C 5300 6748 5284 6769 5225 6796 C 5174 6818 5170 6823 5155 6871 C 5137 6933 5137 6930 5150 6930 C 5155 6930 5169 6912 5180 6890 C 5206 6839 5225 6837 5217 6887 C 5209 6936 5196 6947 5116 6969 C 4980 7007 5003 7030 5178 7030 C 5288 7030 5300 7028 5300 7013 C 5300 6988 5358 6849 5377 6828 C 5397 6806 5410 6805 5410 6825 C 5410 6847 5381 6929 5354 6982 L 5331 7030 L 5356 7036 C 5392 7045 5427 7026 5452 6985 C 5468 6956 5478 6950 5499 6952 C 5522 6955 5529 6948 5553 6901 C 5588 6830 5588 6794 5550 6742 C 5533 6719 5517 6700 5514 6700 C 5511 6700 5494 6711 5478 6725 C 5441 6756 5415 6754 5415 6720 C 5415 6700 5422 6693 5450 6684 C 5497 6669 5499 6644 5455 6593 C 5436 6570 5420 6547 5420 6541 C 5420 6517 5308 6286 5181 6045 C 5029 5757 4788 5353 4650 5153 C 4563 5027 4552 5015 4521 5012 C 4501 5010 4468 4993 4435 4967 C 4405 4944 4363 4913 4341 4898 C 4302 4872 4300 4867 4300 4822 L 4300 4773 L 4188 4678 C 3710 4272 3326 3973 2915 3685 C 2721 3549 2623 3472 2493 3352 C 2382 3250 2360 3217 2396 3203 C 2423 3193 2471 3224 2590 3330 C 2704 3432 2881 3567 3250 3835 C 3552 4054 3903 4338 4225 4624 C 4305 4696 4388 4760 4399 4760 C 4403 4760 4410 4682 4413 4588 C 4416 4493 4424 4362 4431 4298 C 4438 4233 4441 4178 4438 4174 C 4435 4171 4407 4165 4376 4161 C 4311 4152 4284 4131 4270 4081 C 4265 4061 4259 3927 4258 3782 L 4255 3518 L 4284 3494 L 4312 3469 L 4641 3472 C 5053 3476 5014 3453 5018 3689 C 5020 3782 5017 3900 5011 3950 C 4995 4097 4960 4145 4859 4159 C 4792 4168 4780 4175 4780 4204 C 4780 4232 4762 4250 4735 4250 C 4723 4250 4693 4263 4668 4279 C 4595 4325 4583 4361 4571 4579 C 4565 4681 4560 4771 4560 4780 C 4560 4792 4571 4799 4598 4804 C 4625 4808 4641 4818 4658 4843 C 4691 4893 4687 4916 4641 4940 C 4619 4951 4599 4964 4595 4970 C 4592 4975 4607 4999 4628 5022 C 4682 5081 4748 5177 4866 5365 C 5066 5683 5144 5822 5385 6289 C 5482 6479 5588 6677 5619 6729 C 5651 6782 5689 6846 5704 6873 C 5719 6899 5735 6918 5741 6915 C 5746 6911 5760 6890 5771 6867 C 5783 6844 5801 6816 5811 6805 C 5833 6781 5872 6693 5894 6621 C 5916 6548 5895 6558 5845 6647 C 5823 6686 5792 6733 5777 6751 L 5749 6785 L 5754 6746 C 5762 6689 5813 6587 5860 6536 C 5894 6499 5907 6473 5931 6393 C 6002 6155 6032 6127 6361 5977 L 6437 5943 L 6475 5824 C 6496 5758 6520 5677 6530 5643 C 6539 5610 6561 5564 6578 5542 C 6604 5510 6613 5483 6630 5394 C 6662 5229 6683 5166 6724 5119 C 6744 5095 6760 5066 6760 5054 C 6760 5041 6773 5016 6788 4998 C 6804 4980 6833 4940 6853 4910 C 6899 4841 7036 4693 7045 4702 C 7049 4705 7054 4726 7057 4748 C 7062 4786 7061 4788 7020 4811 C 6963 4843 6906 4922 6815 5095 C 6729 5259 6696 5347 6685 5441 C 6677 5510 6665 5541 6626 5588 C 6604 5613 6500 5904 6500 5939 C 6500 5956 6545 5952 6562 5933 C 6571 5923 6592 5863 6608 5800 C 6677 5542 6687 5523 6785 5450 C 6844 5407 6849 5396 6885 5250 C 6910 5151 6942 5067 7022 4890 L 7057 4815 L 7069 4853 C 7081 4888 7080 4892 7058 4909 C 7046 4920 7038 4931 7041 4935 C 7045 4938 7075 4916 7108 4885 C 7150 4847 7174 4814 7186 4782 C 7210 4719 7247 4665 7317 4594 L 7374 4535 L 7378 4564 C 7380 4583 7376 4596 7366 4602 C 7344 4614 7264 4747 7246 4803 C 7237 4829 7218 4868 7204 4890 C 7181 4924 7094 5207 7103 5216 C 7105 5218 7135 5200 7171 5176 C 7242 5127 7710 4660 7782 4565 C 7871 4448 8037 4315 8355 4105 C 8625 3927 8749 3861 8780 3880 C 8800 3892 8786 3904 8692 3961 C 8553 4045 8242 4251 8155 4318 C 8057 4394 7761 4653 7766 4659 C 7769 4662 7783 4654 7798 4643 C 7813 4632 7840 4615 7858 4606 C 7876 4597 7923 4559 7963 4523 C 8003 4486 8072 4432 8118 4402 C 8283 4295 8630 4135 8907 4041 C 9067 3986 9104 3983 9098 4023 C 9095 4041 9068 4054 8920 4105 C 8700 4182 8586 4231 8385 4334 C 8196 4431 8081 4504 7982 4589 C 7938 4627 7878 4666 7828 4689 C 7748 4726 7684 4779 7621 4861 C 7610 4876 7579 4901 7553 4918 C 7526 4935 7460 4997 7405 5056 C 7350 5115 7272 5188 7230 5219 C 7189 5249 7133 5297 7105 5325 C 7059 5371 7052 5385 7018 5496 L 6981 5617 L 6936 5630 C 6847 5655 6837 5666 6789 5802 C 6765 5869 6736 5934 6725 5946 C 6714 5957 6664 5978 6615 5993 C 6445 6045 6450 6039 6375 6267 C 6334 6390 6324 6410 6284 6451 C 6249 6487 6235 6512 6217 6570 C 6196 6639 6192 6645 6150 6668 C 6125 6681 6085 6709 6060 6729 C 6035 6750 5977 6792 5930 6822 C 5866 6864 5839 6889 5821 6922 C 5794 6970 5763 6999 5738 7000 C 5729 7000 5717 7006 5713 7014 C 5709 7022 5685 7044 5660 7064 L 5615 7100 L 5510 7100 C 5452 7100 5400 7104 5393 7108 C 5358 7130 5284 7452 5292 7546 C 5294 7568 5290 7590 5283 7595 C 5277 7601 5260 7664 5245 7735 C 5231 7807 5216 7875 5213 7888 C 5208 7908 5212 7910 5243 7910 C 5282 7910 5312 7932 5304 7954 C 5299 7968 5257 7980 5215 7980 C 5198 7980 5191 7987 5186 8011 C 5177 8060 5178 8066 5205 8078 C 5237 8093 5237 8108 5205 8120 C 5181 8129 5181 8130 5178 8277 L 5175 8425 L 5143 8428 L 5110 8431 L 5110 8277 z M 5174 7809 C 5167 7797 5143 7798 5136 7809 C 5132 7814 5133 7826 5136 7835 C 5142 7850 5144 7850 5161 7834 C 5171 7825 5177 7813 5174 7809 z M 5184 7761 C 5192 7749 5163 7727 5150 7735 C 5133 7746 5139 7770 5159 7770 C 5170 7770 5181 7766 5184 7761 z M 5104 7687 C 5101 7678 5093 7670 5088 7670 C 5082 7670 5081 7677 5084 7686 C 5087 7695 5090 7707 5090 7713 C 5090 7721 5093 7721 5100 7714 C 5106 7708 5108 7696 5104 7687 z M 5219 7674 C 5222 7658 5220 7657 5206 7669 C 5187 7685 5185 7703 5203 7698 C 5209 7695 5217 7685 5219 7674 z M 5173 7625 L 5191 7600 L 5138 7600 L 5085 7600 L 5115 7625 C 5152 7655 5151 7655 5173 7625 z M 5180 7530 C 5161 7514 5142 7500 5139 7500 C 5136 7500 5121 7514 5105 7530 L 5076 7560 L 5146 7560 L 5215 7559 L 5180 7530 z M 5080 7465 C 5080 7450 5052 7425 5044 7433 C 5041 7436 5041 7453 5045 7470 C 5051 7495 5054 7499 5066 7489 C 5074 7483 5080 7472 5080 7465 z M 5246 7455 C 5253 7403 5248 7391 5225 7410 C 5196 7434 5189 7458 5202 7480 C 5223 7512 5238 7503 5246 7455 z M 5168 7377 C 5186 7359 5197 7341 5194 7337 C 5185 7328 5077 7328 5056 7336 C 5044 7341 5050 7350 5083 7376 C 5106 7394 5127 7409 5131 7409 C 5134 7410 5151 7395 5168 7377 z M 4544 7353 C 4547 7343 4552 7278 4556 7208 C 4560 7137 4563 7077 4564 7073 C 4564 7068 4550 7064 4531 7062 L 4498 7059 L 4504 7187 C 4512 7329 4517 7370 4530 7370 C 4535 7370 4541 7362 4544 7353 z M 5190 7292 C 5190 7287 5179 7278 5166 7271 C 5146 7260 5138 7261 5116 7275 C 5102 7285 5090 7294 5090 7296 C 5090 7298 5113 7300 5140 7300 C 5168 7300 5190 7296 5190 7292 z M 5063 7232 L 5089 7205 L 5050 7182 L 5010 7159 L 5010 7194 C 5010 7232 5018 7260 5029 7260 C 5033 7260 5048 7248 5063 7232 z M 5287 7205 C 5293 7178 5297 7154 5295 7151 C 5292 7149 5270 7164 5244 7185 L 5198 7223 L 5227 7241 C 5242 7251 5259 7258 5265 7257 C 5270 7255 5280 7232 5287 7205 z M 5193 7135 C 5224 7119 5250 7102 5250 7099 C 5250 7096 5233 7088 5211 7082 C 5170 7069 5030 7066 5030 7077 C 5030 7086 5123 7170 5131 7167 C 5134 7166 5162 7152 5193 7135 z M 5528 7043 C 5507 7034 5490 7023 5490 7017 C 5490 7011 5493 7010 5497 7013 C 5504 7021 5530 7002 5530 6989 C 5530 6964 5498 6985 5481 7020 L 5462 7060 L 5513 7059 L 5565 7058 L 5528 7043 z M 5627 6976 C 5661 6945 5664 6939 5655 6914 C 5638 6866 5617 6873 5589 6937 C 5576 6969 5564 6998 5562 7002 C 5553 7023 5594 7006 5627 6976 z M 5972 6717 C 6001 6693 6045 6660 6070 6643 C 6145 6592 6150 6582 6165 6464 C 6173 6405 6189 6310 6200 6253 C 6212 6196 6220 6142 6218 6134 C 6215 6120 6212 6120 6193 6136 C 6168 6157 6137 6280 6083 6565 C 6075 6605 6075 6605 6023 6608 C 5992 6610 5967 6617 5959 6626 C 5949 6638 5900 6747 5900 6758 C 5900 6768 5926 6753 5972 6717 z M 4070 6661 C 4030 6581 3963 6537 3845 6510 C 3818 6504 3788 6492 3778 6483 C 3759 6466 3736 6373 3742 6338 C 3746 6317 3747 6317 3766 6348 C 3776 6367 3798 6403 3815 6428 C 3840 6468 3845 6472 3848 6454 C 3856 6400 3765 6271 3686 6225 C 3608 6179 3583 6133 3559 5985 C 3521 5744 3493 5672 3418 5614 C 3382 5587 3360 5560 3344 5523 C 3331 5494 3292 5438 3257 5398 C 3139 5262 3057 5155 3040 5115 C 3023 5076 2984 5032 2975 5041 C 2970 5047 3008 5178 3056 5322 C 3061 5336 3051 5339 2975 5342 C 2927 5344 2886 5342 2884 5339 C 2882 5336 2869 5289 2855 5234 C 2841 5180 2810 5095 2786 5045 C 2762 4996 2733 4923 2722 4884 C 2703 4821 2696 4810 2666 4796 C 2647 4787 2623 4780 2612 4780 C 2583 4780 2590 4800 2680 4985 C 2727 5080 2769 5183 2785 5240 C 2822 5374 2827 5380 2940 5449 C 2976 5471 3030 5509 3060 5534 C 3090 5559 3118 5580 3121 5580 C 3125 5580 3120 5558 3109 5530 C 3091 5484 3092 5450 3110 5450 C 3129 5450 3160 5506 3186 5583 C 3211 5658 3239 5724 3300 5853 C 3314 5883 3339 5912 3368 5933 C 3434 5980 3515 6090 3572 6210 C 3700 6480 3698 6476 3737 6502 C 3758 6516 3819 6550 3873 6579 C 3927 6608 3996 6651 4028 6675 C 4059 6699 4088 6719 4093 6719 C 4097 6720 4087 6693 4070 6661 z M 3984 6685 C 3974 6677 3934 6654 3895 6634 C 3846 6609 3831 6604 3845 6618 C 3867 6641 3993 6710 3999 6704 C 4002 6702 3995 6693 3984 6685 z M 3795 6582 C 3780 6568 3704 6526 3715 6537 C 3737 6559 3783 6590 3793 6590 C 3800 6590 3800 6587 3795 6582 z M 6026 6544 C 6035 6532 6062 6415 6100 6218 C 6104 6197 6104 6180 6100 6180 C 6090 6180 6055 6221 6040 6248 C 6004 6319 5952 6539 5966 6561 C 5973 6573 6012 6562 6026 6544 z M 6259 6382 C 6278 6355 6374 6060 6366 6052 C 6357 6044 6298 6083 6290 6103 C 6282 6121 6220 6389 6220 6405 C 6220 6419 6241 6407 6259 6382 z M 6670 5910 C 6690 5899 6725 5802 6765 5643 C 6801 5496 6797 5454 6751 5519 C 6722 5560 6713 5587 6674 5754 C 6632 5939 6632 5930 6670 5910 z M 6896 5571 L 6937 5553 L 6988 5379 C 7059 5138 7102 4971 7097 4957 C 7090 4935 7039 5000 7004 5075 C 6985 5116 6951 5214 6929 5292 C 6902 5387 6878 5448 6859 5474 C 6839 5502 6830 5526 6830 5552 C 6830 5596 6837 5598 6896 5571 z M 2970 5270 C 2970 5226 2921 5000 2904 4968 C 2883 4927 2792 4875 2773 4894 C 2770 4897 2788 4942 2813 4993 C 2838 5044 2873 5128 2891 5180 C 2909 5232 2928 5281 2933 5288 C 2951 5311 2970 5301 2970 5270 z M 4516 4908 C 4476 4851 4390 4804 4367 4827 C 4358 4836 4390 4870 4407 4870 C 4414 4870 4444 4886 4472 4905 C 4527 4943 4541 4944 4516 4908 z M 4596 4866 C 4600 4844 4597 4840 4575 4840 C 4550 4840 4550 4840 4565 4871 C 4583 4905 4589 4905 4596 4866 z M 4501 4788 C 4501 4786 4505 4697 4510 4589 C 4514 4482 4523 4374 4530 4350 C 4538 4321 4559 4289 4596 4250 C 4626 4219 4650 4190 4650 4187 C 4650 4183 4621 4180 4586 4180 L 4522 4180 L 4506 4268 C 4470 4453 4461 4790 4491 4790 C 4496 4790 4500 4789 4501 4788 z M 4805 4099 C 4809 4093 4810 4087 4807 4084 C 4799 4076 4395 4067 4367 4074 C 4336 4081 4332 4096 4358 4103 C 4396 4113 4799 4110 4805 4099 z M 4929 3989 C 4935 3961 4940 3905 4940 3865 C 4940 3804 4937 3790 4925 3790 C 4904 3790 4902 3798 4897 3938 C 4894 4037 4895 4058 4906 4049 C 4913 4044 4923 4016 4929 3989 z M 4438 3907 L 4441 3799 L 4383 3802 L 4325 3805 L 4322 3890 C 4318 4017 4320 4022 4383 4018 L 4435 4015 L 4438 3907 z M 4648 4005 C 4649 4004 4653 3957 4657 3901 L 4663 3800 L 4602 3800 C 4507 3800 4510 3797 4510 3917 L 4510 4022 L 4578 4015 C 4615 4011 4646 4006 4648 4005 z M 4815 4010 C 4818 4005 4824 3955 4827 3900 L 4833 3800 L 4777 3800 L 4720 3800 L 4720 3910 L 4720 4020 L 4764 4020 C 4789 4020 4812 4016 4815 4010 z M 4793 3724 L 4831 3717 L 4828 3631 L 4825 3545 L 4735 3542 C 4686 3540 4572 3542 4483 3545 L 4320 3552 L 4320 3641 L 4320 3730 L 4538 3730 C 4657 3730 4772 3727 4793 3724 z M 4950 3629 C 4950 3541 4949 3539 4928 3542 C 4906 3545 4905 3550 4902 3633 L 4899 3720 L 4925 3720 C 4950 3720 4950 3720 4950 3629 z" stroke-linecap="round" />
</g>
		<g transform="matrix(0.13 0 0 -0.13 -275.63 -31.08)"  >
<path style="stroke: none; stroke-width: 1; stroke-dasharray: none; stroke-linecap: butt; stroke-dashoffset: 0; stroke-linejoin: miter; stroke-miterlimit: 4; fill: rgb(0,0,0); fill-rule: nonzero; opacity: 1;" vector-effect="non-scaling-stroke"  transform=" translate(-3334.33, -5674.49)" d="M 3412 5877 C 3406 5870 3392 5840 3381 5810 C 3370 5780 3343 5726 3323 5690 C 3256 5576 3217 5491 3223 5475 C 3235 5445 3261 5460 3282 5508 C 3293 5534 3325 5594 3352 5641 C 3404 5732 3455 5864 3445 5880 C 3437 5894 3425 5892 3412 5877 z" stroke-linecap="round" />
</g>
		<g transform="matrix(0.13 0 0 -0.13 -127.58 -153.08)"  >
<path style="stroke: none; stroke-width: 1; stroke-dasharray: none; stroke-linecap: butt; stroke-dashoffset: 0; stroke-linejoin: miter; stroke-miterlimit: 4; fill: rgb(0,0,0); fill-rule: nonzero; opacity: 1;" vector-effect="non-scaling-stroke"  transform=" translate(-4444.66, -6589.47)" d="M 4614 6818 C 4585 6780 4553 6754 4492 6719 C 4343 6633 4312 6606 4274 6523 C 4256 6482 4232 6436 4220 6421 C 4194 6383 4193 6350 4220 6350 C 4242 6350 4277 6399 4316 6487 C 4329 6519 4349 6553 4358 6563 C 4385 6593 4500 6673 4507 6666 C 4514 6660 4445 6479 4400 6382 C 4383 6348 4370 6317 4370 6315 C 4370 6312 4381 6310 4394 6310 C 4430 6310 4456 6350 4489 6455 C 4506 6505 4530 6569 4544 6595 C 4559 6621 4570 6652 4570 6663 C 4570 6673 4593 6707 4621 6738 C 4678 6801 4696 6831 4687 6854 C 4676 6882 4654 6871 4614 6818 z" stroke-linecap="round" />
</g>
		<g transform="matrix(0.13 0 0 -0.13 -143.8 -176.84)"  >
<path style="stroke: none; stroke-width: 1; stroke-dasharray: none; stroke-linecap: butt; stroke-dashoffset: 0; stroke-linejoin: miter; stroke-miterlimit: 4; fill: rgb(0,0,0); fill-rule: nonzero; opacity: 1;" vector-effect="non-scaling-stroke"  transform=" translate(-4323.01, -6767.73)" d="M 4312 6790 C 4266 6749 4231 6712 4233 6707 C 4235 6701 4244 6692 4253 6686 C 4266 6678 4277 6684 4307 6716 C 4328 6739 4358 6765 4373 6775 C 4411 6799 4422 6823 4406 6845 C 4395 6861 4386 6856 4312 6790 z" stroke-linecap="round" />
</g>
		<g transform="matrix(0.13 0 0 -0.13 -57.57 -175.79)"  >
<path style="stroke: none; stroke-width: 1; stroke-dasharray: none; stroke-linecap: butt; stroke-dashoffset: 0; stroke-linejoin: miter; stroke-miterlimit: 4; fill: rgb(0,0,0); fill-rule: nonzero; opacity: 1;" vector-effect="non-scaling-stroke"  transform=" translate(-4969.72, -6759.84)" d="M 4944 6775 C 4935 6752 4947 6730 4969 6730 C 4989 6730 5006 6762 4995 6780 C 4986 6795 4950 6792 4944 6775 z" stroke-linecap="round" />
</g>
		<g transform="matrix(0.13 0 0 -0.13 260.46 53.51)"  >
<path style="stroke: none; stroke-width: 1; stroke-dasharray: none; stroke-linecap: butt; stroke-dashoffset: 0; stroke-linejoin: miter; stroke-miterlimit: 4; fill: rgb(0,0,0); fill-rule: nonzero; opacity: 1;" vector-effect="non-scaling-stroke"  transform=" translate(-7355, -5040.07)" d="M 5690 6590 C 5690 6571 5697 6533 5705 6507 C 5716 6470 5717 6454 5708 6435 C 5698 6412 5702 6405 5767 6343 C 5887 6226 5977 6068 6021 5897 C 6046 5800 6049 5792 6081 5777 C 6125 5755 6235 5506 6228 5443 C 6225 5417 6223 5419 6198 5470 C 6183 5500 6159 5557 6145 5595 C 6121 5662 6096 5695 6079 5684 C 6062 5674 6070 5634 6105 5551 C 6147 5450 6152 5441 6238 5343 C 6309 5262 6407 5120 6450 5038 C 6465 5010 6536 4928 6622 4841 C 6737 4723 6788 4662 6857 4558 C 6924 4457 6977 4393 7077 4290 C 7150 4217 7212 4159 7216 4163 C 7227 4174 7160 4265 7061 4374 C 7011 4429 6947 4507 6919 4549 C 6890 4591 6855 4638 6841 4654 L 6815 4683 L 6860 4659 C 6922 4627 6982 4578 7065 4495 C 7104 4457 7215 4357 7313 4275 C 7552 4073 7600 4042 7600 4089 C 7600 4102 7556 4142 7464 4212 C 7389 4269 7319 4320 7307 4327 C 7279 4343 7209 4403 7146 4467 C 7118 4495 7086 4523 7074 4528 C 7063 4534 7049 4555 7043 4575 L 7032 4611 L 7068 4589 C 7156 4537 7385 4379 7508 4286 C 7868 4013 7925 3977 8257 3800 C 8595 3622 8973 3452 9006 3464 C 9014 3467 9020 3478 9020 3488 C 9020 3508 9018 3509 8805 3601 C 8698 3647 8385 3804 8122 3944 C 7938 4042 7844 4104 7580 4305 C 7398 4444 7184 4593 7125 4623 C 7109 4631 7075 4641 7050 4645 C 6990 4655 6904 4701 6839 4759 C 6809 4785 6748 4836 6704 4872 C 6612 4945 6540 5022 6511 5078 C 6500 5098 6447 5180 6392 5259 C 6306 5382 6291 5410 6285 5454 C 6273 5547 6251 5606 6194 5691 C 6117 5806 6094 5855 6049 5993 C 6008 6119 5972 6186 5878 6313 C 5846 6357 5797 6435 5769 6488 C 5740 6542 5711 6594 5703 6605 C 5691 6623 5690 6622 5690 6590 z" stroke-linecap="round" />
</g>
		<g transform="matrix(0.13 0 0 -0.13 -97.54 -137.81)"  >
<path style="stroke: none; stroke-width: 1; stroke-dasharray: none; stroke-linecap: butt; stroke-dashoffset: 0; stroke-linejoin: miter; stroke-miterlimit: 4; fill: rgb(0,0,0); fill-rule: nonzero; opacity: 1;" vector-effect="non-scaling-stroke"  transform=" translate(-4670, -6475)" d="M 4683 6528 C 4615 6462 4540 6372 4540 6356 C 4540 6353 4551 6350 4564 6350 C 4590 6350 4640 6385 4640 6404 C 4640 6423 4720 6500 4763 6521 C 4785 6533 4800 6548 4800 6558 C 4800 6577 4782 6600 4767 6600 C 4762 6600 4724 6567 4683 6528 z" stroke-linecap="round" />
</g>
		<g transform="matrix(0.13 0 0 -0.13 -20.98 -144.59)"  >
<path style="stroke: none; stroke-width: 1; stroke-dasharray: none; stroke-linecap: butt; stroke-dashoffset: 0; stroke-linejoin: miter; stroke-miterlimit: 4; fill: rgb(0,0,0); fill-rule: nonzero; opacity: 1;" vector-effect="non-scaling-stroke"  transform=" translate(-5244.14, -6525.8)" d="M 5220 6539 C 5210 6522 5211 6515 5224 6502 C 5245 6480 5275 6498 5275 6531 C 5275 6564 5236 6570 5220 6539 z" stroke-linecap="round" />
</g>
		<g transform="matrix(0.13 0 0 -0.13 -102.14 -105.15)"  >
<path style="stroke: none; stroke-width: 1; stroke-dasharray: none; stroke-linecap: butt; stroke-dashoffset: 0; stroke-linejoin: miter; stroke-miterlimit: 4; fill: rgb(0,0,0); fill-rule: nonzero; opacity: 1;" vector-effect="non-scaling-stroke"  transform=" translate(-4635.45, -6229.99)" d="M 4609 6249 C 4581 6221 4588 6196 4625 6192 C 4644 6189 4658 6194 4667 6206 C 4684 6229 4683 6235 4664 6254 C 4644 6275 4634 6274 4609 6249 z" stroke-linecap="round" />
</g>
		<g transform="matrix(0.13 0 0 -0.13 59.43 20.19)"  >
<path style="stroke: none; stroke-width: 1; stroke-dasharray: none; stroke-linecap: butt; stroke-dashoffset: 0; stroke-linejoin: miter; stroke-miterlimit: 4; fill: rgb(0,0,0); fill-rule: nonzero; opacity: 1;" vector-effect="non-scaling-stroke"  transform=" translate(-5847.26, -5290)" d="M 5506 6195 C 5498 6186 5493 6173 5496 6166 C 5499 6158 5544 6122 5597 6085 C 5692 6017 5692 6017 5685 5982 C 5681 5962 5665 5920 5649 5888 C 5628 5847 5622 5822 5626 5804 C 5631 5786 5626 5770 5611 5750 C 5600 5734 5590 5716 5590 5710 C 5590 5696 5633 5697 5648 5712 C 5657 5721 5668 5715 5695 5687 C 5714 5667 5751 5639 5775 5624 C 5800 5610 5825 5590 5830 5579 C 5854 5536 5880 5255 5890 4940 C 5901 4602 5912 4467 5931 4444 C 5937 4437 5939 4426 5935 4421 C 5925 4404 5949 4370 5971 4370 C 6000 4370 6006 4397 5982 4423 C 5961 4446 5961 4451 5934 5125 C 5931 5202 5922 5323 5914 5393 C 5905 5464 5901 5524 5903 5527 C 5912 5535 5980 5501 5980 5488 C 5981 5438 6021 5177 6034 5142 C 6042 5119 6054 5044 6060 4977 C 6066 4910 6079 4819 6089 4775 C 6106 4705 6107 4692 6094 4668 C 6086 4653 6080 4636 6080 4630 C 6080 4616 6157 4617 6162 4632 C 6164 4638 6160 4680 6153 4724 C 6146 4768 6137 4845 6134 4895 C 6126 5001 6138 5001 6169 4893 C 6193 4812 6206 4797 6196 4863 C 6186 4929 6161 5008 6125 5090 C 6084 5180 6061 5290 6053 5425 C 6048 5506 6042 5535 6020 5580 C 6005 5610 5987 5661 5980 5693 C 5948 5850 5840 6003 5707 6079 C 5678 6095 5628 6132 5596 6160 C 5565 6187 5535 6210 5530 6210 C 5525 6210 5515 6203 5506 6195 z M 5817 5892 C 5874 5805 5894 5763 5915 5679 C 5924 5647 5933 5614 5936 5605 C 5947 5577 5919 5590 5870 5636 C 5825 5678 5819 5689 5780 5812 C 5742 5933 5736 5970 5758 5970 C 5763 5970 5789 5935 5817 5892 z M 5734 5790 C 5747 5754 5760 5717 5764 5708 C 5777 5678 5754 5688 5722 5724 C 5689 5761 5675 5808 5685 5840 C 5696 5874 5710 5859 5734 5790 z" stroke-linecap="round" />
</g>
		<g transform="matrix(0.13 0 0 -0.13 58.3 -84.38)"  >
<path style="stroke: none; stroke-width: 1; stroke-dasharray: none; stroke-linecap: butt; stroke-dashoffset: 0; stroke-linejoin: miter; stroke-miterlimit: 4; fill: rgb(0,0,0); fill-rule: nonzero; opacity: 1;" vector-effect="non-scaling-stroke"  transform=" translate(-5838.77, -6074.26)" d="M 5775 6190 C 5768 6179 5772 6171 5817 6112 C 5835 6088 5850 6064 5850 6060 C 5850 6055 5860 6025 5872 5993 C 5891 5941 5894 5938 5902 5959 C 5913 5990 5896 6049 5853 6133 C 5819 6197 5792 6217 5775 6190 z" stroke-linecap="round" />
</g>
		<g transform="matrix(0.13 0 0 -0.13 -146.08 -68.63)"  >
<path style="stroke: none; stroke-width: 1; stroke-dasharray: none; stroke-linecap: butt; stroke-dashoffset: 0; stroke-linejoin: miter; stroke-miterlimit: 4; fill: rgb(0,0,0); fill-rule: nonzero; opacity: 1;" vector-effect="non-scaling-stroke"  transform=" translate(-4305.91, -5956.11)" d="M 4286 5969 C 4227 5905 4221 5893 4245 5884 C 4265 5876 4288 5896 4292 5923 C 4294 5938 4304 5946 4326 5951 C 4367 5959 4380 5968 4380 5989 C 4380 6006 4362 6030 4349 6030 C 4345 6030 4317 6003 4286 5969 z" stroke-linecap="round" />
</g>
		<g transform="matrix(0.13 0 0 -0.13 16.42 -68.16)"  >
<path style="stroke: none; stroke-width: 1; stroke-dasharray: none; stroke-linecap: butt; stroke-dashoffset: 0; stroke-linejoin: miter; stroke-miterlimit: 4; fill: rgb(0,0,0); fill-rule: nonzero; opacity: 1;" vector-effect="non-scaling-stroke"  transform=" translate(-5524.69, -5952.62)" d="M 5493 5964 C 5484 5940 5517 5917 5542 5931 C 5569 5946 5560 5974 5527 5978 C 5509 5980 5498 5976 5493 5964 z" stroke-linecap="round" />
</g>
		<g transform="matrix(0.13 0 0 -0.13 142.87 -5.18)"  >
<path style="stroke: none; stroke-width: 1; stroke-dasharray: none; stroke-linecap: butt; stroke-dashoffset: 0; stroke-linejoin: miter; stroke-miterlimit: 4; fill: rgb(0,0,0); fill-rule: nonzero; opacity: 1;" vector-effect="non-scaling-stroke"  transform=" translate(-6473.07, -5480.26)" d="M 6370 5833 C 6370 5817 6442 5526 6456 5488 C 6476 5432 6496 5332 6505 5249 C 6513 5162 6553 5095 6575 5130 C 6579 5136 6572 5180 6561 5228 C 6550 5276 6538 5340 6534 5370 C 6531 5400 6517 5461 6505 5505 C 6492 5549 6470 5630 6455 5685 C 6429 5780 6400 5840 6379 5840 C 6374 5840 6370 5837 6370 5833 z" stroke-linecap="round" />
</g>
		<g transform="matrix(0.13 0 0 -0.13 -4.23 -22.53)"  >
<path style="stroke: none; stroke-width: 1; stroke-dasharray: none; stroke-linecap: butt; stroke-dashoffset: 0; stroke-linejoin: miter; stroke-miterlimit: 4; fill: rgb(0,0,0); fill-rule: nonzero; opacity: 1;" vector-effect="non-scaling-stroke"  transform=" translate(-5369.76, -5610.38)" d="M 5350 5624 C 5339 5612 5340 5606 5353 5592 C 5369 5577 5371 5577 5386 5592 C 5405 5610 5398 5640 5377 5640 C 5369 5640 5357 5633 5350 5624 z" stroke-linecap="round" />
</g>
		<g transform="matrix(0.13 0 0 -0.13 127.03 -0.13)"  >
<path style="stroke: none; stroke-width: 1; stroke-dasharray: none; stroke-linecap: butt; stroke-dashoffset: 0; stroke-linejoin: miter; stroke-miterlimit: 4; fill: rgb(0,0,0); fill-rule: nonzero; opacity: 1;" vector-effect="non-scaling-stroke"  transform=" translate(-6354.27, -5442.38)" d="M 6345 5455 C 6355 5395 6372 5375 6366 5429 C 6364 5453 6356 5478 6350 5484 C 6340 5492 6339 5486 6345 5455 z" stroke-linecap="round" />
</g>
		<g transform="matrix(0.13 0 0 -0.13 2.69 61.57)"  >
<path style="stroke: none; stroke-width: 1; stroke-dasharray: none; stroke-linecap: butt; stroke-dashoffset: 0; stroke-linejoin: miter; stroke-miterlimit: 4; fill: rgb(0,0,0); fill-rule: nonzero; opacity: 1;" vector-effect="non-scaling-stroke"  transform=" translate(-5421.67, -4979.62)" d="M 5385 5340 C 5382 5334 5384 5277 5390 5212 C 5396 5148 5405 4994 5409 4870 C 5414 4746 5421 4637 5425 4628 C 5429 4618 5438 4610 5446 4610 C 5462 4610 5464 4768 5452 5116 C 5446 5285 5443 5310 5426 5329 C 5405 5352 5394 5355 5385 5340 z" stroke-linecap="round" />
</g>
		<g transform="matrix(0.13 0 0 -0.13 36.93 76.91)"  >
<path style="stroke: none; stroke-width: 1; stroke-dasharray: none; stroke-linecap: butt; stroke-dashoffset: 0; stroke-linejoin: miter; stroke-miterlimit: 4; fill: rgb(0,0,0); fill-rule: nonzero; opacity: 1;" vector-effect="non-scaling-stroke"  transform=" translate(-5678.49, -4864.56)" d="M 5621 5297 C 5581 5277 5560 5238 5550 5169 C 5534 5055 5536 4978 5555 4930 C 5567 4899 5575 4834 5582 4715 C 5590 4583 5596 4542 5608 4533 C 5616 4526 5627 4523 5633 4527 C 5648 4536 5633 4885 5615 4955 C 5607 4986 5600 5055 5600 5109 C 5600 5192 5603 5209 5619 5224 C 5634 5238 5642 5239 5664 5229 C 5696 5214 5697 5209 5709 5080 C 5715 5022 5724 4944 5729 4905 C 5735 4867 5746 4745 5754 4636 C 5769 4435 5776 4406 5808 4433 C 5817 4440 5820 4454 5816 4474 C 5812 4490 5805 4594 5799 4704 C 5794 4815 5783 4954 5775 5013 C 5767 5072 5760 5146 5760 5176 C 5760 5241 5749 5265 5712 5284 C 5666 5307 5646 5310 5621 5297 z" stroke-linecap="round" />
</g>
		<g transform="matrix(0.13 0 0 -0.13 107.08 32.12)"  >
<path style="stroke: none; stroke-width: 1; stroke-dasharray: none; stroke-linecap: butt; stroke-dashoffset: 0; stroke-linejoin: miter; stroke-miterlimit: 4; fill: rgb(0,0,0); fill-rule: nonzero; opacity: 1;" vector-effect="non-scaling-stroke"  transform=" translate(-6204.6, -5200.5)" d="M 6182 5228 C 6165 5211 6167 5196 6190 5175 C 6218 5149 6242 5162 6238 5202 C 6235 5238 6205 5251 6182 5228 z" stroke-linecap="round" />
</g>
		<g transform="matrix(0.13 0 0 -0.13 -25.87 45.52)"  >
<path style="stroke: none; stroke-width: 1; stroke-dasharray: none; stroke-linecap: butt; stroke-dashoffset: 0; stroke-linejoin: miter; stroke-miterlimit: 4; fill: rgb(0,0,0); fill-rule: nonzero; opacity: 1;" vector-effect="non-scaling-stroke"  transform=" translate(-5207.47, -5099.98)" d="M 5186 5208 C 5176 5175 5172 5027 5180 5005 C 5191 4977 5215 4972 5224 4995 C 5227 5003 5232 5049 5236 5098 C 5242 5173 5240 5188 5226 5203 C 5205 5223 5191 5225 5186 5208 z" stroke-linecap="round" />
</g>
		<g transform="matrix(0.13 0 0 -0.13 121.87 65.39)"  >
<path style="stroke: none; stroke-width: 1; stroke-dasharray: none; stroke-linecap: butt; stroke-dashoffset: 0; stroke-linejoin: miter; stroke-miterlimit: 4; fill: rgb(0,0,0); fill-rule: nonzero; opacity: 1;" vector-effect="non-scaling-stroke"  transform=" translate(-6315.55, -4950.96)" d="M 6293 4950 C 6340 4810 6357 4770 6369 4772 C 6393 4777 6394 4817 6371 4846 C 6359 4861 6350 4880 6350 4889 C 6350 4921 6290 5114 6278 5122 C 6271 5126 6258 5130 6249 5130 C 6236 5130 6244 5097 6293 4950 z" stroke-linecap="round" />
</g>
		<g transform="matrix(0.13 0 0 -0.13 246.63 62.77)"  >
<path style="stroke: none; stroke-width: 1; stroke-dasharray: none; stroke-linecap: butt; stroke-dashoffset: 0; stroke-linejoin: miter; stroke-miterlimit: 4; fill: rgb(0,0,0); fill-rule: nonzero; opacity: 1;" vector-effect="non-scaling-stroke"  transform=" translate(-7251.28, -4970.61)" d="M 7200 5018 C 7200 5012 7211 4988 7225 4964 C 7250 4922 7284 4900 7301 4917 C 7314 4930 7242 5030 7219 5030 C 7209 5030 7200 5025 7200 5018 z" stroke-linecap="round" />
</g>
		<g transform="matrix(0.13 0 0 -0.13 147.89 78.29)"  >
<path style="stroke: none; stroke-width: 1; stroke-dasharray: none; stroke-linecap: butt; stroke-dashoffset: 0; stroke-linejoin: miter; stroke-miterlimit: 4; fill: rgb(0,0,0); fill-rule: nonzero; opacity: 1;" vector-effect="non-scaling-stroke"  transform=" translate(-6510.67, -4854.22)" d="M 6484 4876 C 6476 4854 6498 4820 6521 4820 C 6538 4820 6541 4825 6538 4853 C 6536 4877 6530 4886 6512 4888 C 6499 4890 6488 4885 6484 4876 z" stroke-linecap="round" />
</g>
		<g transform="matrix(0.13 0 0 -0.13 13.67 156.23)"  >
<path style="stroke: none; stroke-width: 1; stroke-dasharray: none; stroke-linecap: butt; stroke-dashoffset: 0; stroke-linejoin: miter; stroke-miterlimit: 4; fill: rgb(0,0,0); fill-rule: nonzero; opacity: 1;" vector-effect="non-scaling-stroke"  transform=" translate(-5504.03, -4269.7)" d="M 5174 4866 C 5171 4858 5180 4825 5193 4793 C 5207 4761 5239 4686 5263 4625 C 5288 4565 5336 4450 5369 4370 C 5403 4290 5442 4196 5457 4160 C 5507 4039 5781 3660 5818 3660 C 5836 3660 5841 3693 5825 3716 C 5809 3741 5675 3913 5619 3981 C 5598 4005 5564 4066 5542 4115 C 5409 4415 5303 4668 5274 4755 C 5255 4810 5232 4861 5223 4868 C 5201 4884 5181 4883 5174 4866 z" stroke-linecap="round" />
</g>
		<g transform="matrix(0.13 0 0 -0.13 111.7 93.78)"  >
<path style="stroke: none; stroke-width: 1; stroke-dasharray: none; stroke-linecap: butt; stroke-dashoffset: 0; stroke-linejoin: miter; stroke-miterlimit: 4; fill: rgb(0,0,0); fill-rule: nonzero; opacity: 1;" vector-effect="non-scaling-stroke"  transform=" translate(-6239.24, -4738.03)" d="M 6206 4769 C 6220 4700 6255 4658 6275 4690 C 6282 4702 6250 4758 6220 4785 C 6200 4803 6200 4803 6206 4769 z" stroke-linecap="round" />
</g>
		<g transform="matrix(0.13 0 0 -0.13 259.96 92.24)"  >
<path style="stroke: none; stroke-width: 1; stroke-dasharray: none; stroke-linecap: butt; stroke-dashoffset: 0; stroke-linejoin: miter; stroke-miterlimit: 4; fill: rgb(0,0,0); fill-rule: nonzero; opacity: 1;" vector-effect="non-scaling-stroke"  transform=" translate(-7351.25, -4749.61)" d="M 7304 4785 C 7295 4762 7362 4695 7384 4703 C 7421 4717 7386 4778 7332 4795 C 7316 4799 7308 4797 7304 4785 z" stroke-linecap="round" />
</g>
		<g transform="matrix(0.13 0 0 -0.13 154.09 97.76)"  >
<path style="stroke: none; stroke-width: 1; stroke-dasharray: none; stroke-linecap: butt; stroke-dashoffset: 0; stroke-linejoin: miter; stroke-miterlimit: 4; fill: rgb(0,0,0); fill-rule: nonzero; opacity: 1;" vector-effect="non-scaling-stroke"  transform=" translate(-6557.21, -4708.18)" d="M 6536 4735 C 6516 4714 6516 4707 6538 4687 C 6562 4665 6577 4666 6589 4689 C 6597 4703 6594 4712 6576 4729 C 6554 4749 6551 4750 6536 4735 z" stroke-linecap="round" />
</g>
		<g transform="matrix(0.13 0 0 -0.13 273.12 105.39)"  >
<path style="stroke: none; stroke-width: 1; stroke-dasharray: none; stroke-linecap: butt; stroke-dashoffset: 0; stroke-linejoin: miter; stroke-miterlimit: 4; fill: rgb(0,0,0); fill-rule: nonzero; opacity: 1;" vector-effect="non-scaling-stroke"  transform=" translate(-7449.92, -4650.94)" d="M 7417 4683 C 7392 4659 7441 4601 7475 4614 C 7493 4621 7495 4661 7478 4678 C 7465 4691 7428 4694 7417 4683 z" stroke-linecap="round" />
</g>
		<g transform="matrix(0.13 0 0 -0.13 176.47 120.19)"  >
<path style="stroke: none; stroke-width: 1; stroke-dasharray: none; stroke-linecap: butt; stroke-dashoffset: 0; stroke-linejoin: miter; stroke-miterlimit: 4; fill: rgb(0,0,0); fill-rule: nonzero; opacity: 1;" vector-effect="non-scaling-stroke"  transform=" translate(-6725.04, -4539.96)" d="M 6620 4663 C 6620 4649 6661 4587 6723 4507 C 6776 4438 6806 4410 6824 4410 C 6836 4410 6829 4438 6814 4451 C 6797 4465 6729 4559 6694 4617 C 6682 4637 6666 4656 6659 4661 C 6642 4672 6620 4673 6620 4663 z" stroke-linecap="round" />
</g>
		<g transform="matrix(0.13 0 0 -0.13 -267.52 110.27)"  >
<path style="stroke: none; stroke-width: 1; stroke-dasharray: none; stroke-linecap: butt; stroke-dashoffset: 0; stroke-linejoin: miter; stroke-miterlimit: 4; fill: rgb(0,0,0); fill-rule: nonzero; opacity: 1;" vector-effect="non-scaling-stroke"  transform=" translate(-3395.12, -4614.4)" d="M 3374 4626 C 3366 4605 3377 4590 3401 4590 C 3416 4590 3421 4596 3418 4612 C 3414 4639 3383 4649 3374 4626 z" stroke-linecap="round" />
</g>
		<g transform="matrix(0.13 0 0 -0.13 284.98 122.66)"  >
<path style="stroke: none; stroke-width: 1; stroke-dasharray: none; stroke-linecap: butt; stroke-dashoffset: 0; stroke-linejoin: miter; stroke-miterlimit: 4; fill: rgb(0,0,0); fill-rule: nonzero; opacity: 1;" vector-effect="non-scaling-stroke"  transform=" translate(-7538.85, -4521.48)" d="M 7500 4542 C 7500 4516 7545 4476 7566 4484 C 7577 4488 7580 4497 7576 4513 C 7573 4525 7570 4541 7570 4548 C 7570 4555 7556 4560 7535 4560 C 7508 4560 7500 4556 7500 4542 z" stroke-linecap="round" />
</g>
		<g transform="matrix(0.13 0 0 -0.13 98.58 126.14)"  >
<path style="stroke: none; stroke-width: 1; stroke-dasharray: none; stroke-linecap: butt; stroke-dashoffset: 0; stroke-linejoin: miter; stroke-miterlimit: 4; fill: rgb(0,0,0); fill-rule: nonzero; opacity: 1;" vector-effect="non-scaling-stroke"  transform=" translate(-6140.87, -4495.36)" d="M 6109 4514 C 6090 4491 6110 4466 6149 4462 C 6176 4459 6180 4462 6180 4482 C 6180 4526 6136 4546 6109 4514 z" stroke-linecap="round" />
</g>
		<g transform="matrix(0.13 0 0 -0.13 28.46 132.22)"  >
<path style="stroke: none; stroke-width: 1; stroke-dasharray: none; stroke-linecap: butt; stroke-dashoffset: 0; stroke-linejoin: miter; stroke-miterlimit: 4; fill: rgb(0,0,0); fill-rule: nonzero; opacity: 1;" vector-effect="non-scaling-stroke"  transform=" translate(-5614.97, -4449.74)" d="M 5595 4474 C 5586 4465 5580 4448 5582 4436 C 5584 4420 5592 4415 5615 4415 C 5640 4415 5646 4419 5648 4442 C 5652 4478 5619 4498 5595 4474 z" stroke-linecap="round" />
</g>
		<g transform="matrix(0.13 0 0 -0.13 299.94 135.39)"  >
<path style="stroke: none; stroke-width: 1; stroke-dasharray: none; stroke-linecap: butt; stroke-dashoffset: 0; stroke-linejoin: miter; stroke-miterlimit: 4; fill: rgb(0,0,0); fill-rule: nonzero; opacity: 1;" vector-effect="non-scaling-stroke"  transform=" translate(-7651.03, -4425.99)" d="M 7605 4460 C 7596 4446 7615 4415 7646 4395 C 7672 4378 7674 4378 7687 4396 C 7706 4421 7703 4437 7678 4454 C 7653 4472 7614 4475 7605 4460 z" stroke-linecap="round" />
</g>
		<g transform="matrix(0.13 0 0 -0.13 -16.77 139.95)"  >
<path style="stroke: none; stroke-width: 1; stroke-dasharray: none; stroke-linecap: butt; stroke-dashoffset: 0; stroke-linejoin: miter; stroke-miterlimit: 4; fill: rgb(0,0,0); fill-rule: nonzero; opacity: 1;" vector-effect="non-scaling-stroke"  transform=" translate(-5275.72, -4391.74)" d="M 5272 4429 C 5243 4418 5235 4397 5250 4370 C 5268 4336 5304 4347 5308 4389 C 5312 4430 5302 4441 5272 4429 z" stroke-linecap="round" />
</g>
		<g transform="matrix(0.13 0 0 -0.13 201.09 152.47)"  >
<path style="stroke: none; stroke-width: 1; stroke-dasharray: none; stroke-linecap: butt; stroke-dashoffset: 0; stroke-linejoin: miter; stroke-miterlimit: 4; fill: rgb(0,0,0); fill-rule: nonzero; opacity: 1;" vector-effect="non-scaling-stroke"  transform=" translate(-6909.69, -4297.9)" d="M 6830 4364 C 6830 4356 6862 4316 6900 4277 C 6957 4219 6973 4208 6980 4220 C 6997 4247 6991 4269 6961 4284 C 6945 4293 6918 4318 6900 4340 C 6868 4380 6830 4394 6830 4364 z" stroke-linecap="round" />
</g>
		<g transform="matrix(0.13 0 0 -0.13 36.46 150.67)"  >
<path style="stroke: none; stroke-width: 1; stroke-dasharray: none; stroke-linecap: butt; stroke-dashoffset: 0; stroke-linejoin: miter; stroke-miterlimit: 4; fill: rgb(0,0,0); fill-rule: nonzero; opacity: 1;" vector-effect="non-scaling-stroke"  transform=" translate(-5674.96, -4311.4)" d="M 5657 4333 C 5644 4321 5650 4292 5666 4286 C 5688 4277 5700 4287 5700 4316 C 5700 4333 5694 4340 5682 4340 C 5672 4340 5660 4337 5657 4333 z" stroke-linecap="round" />
</g>
		<g transform="matrix(0.13 0 0 -0.13 136.92 175.61)"  >
<path style="stroke: none; stroke-width: 1; stroke-dasharray: none; stroke-linecap: butt; stroke-dashoffset: 0; stroke-linejoin: miter; stroke-miterlimit: 4; fill: rgb(0,0,0); fill-rule: nonzero; opacity: 1;" vector-effect="non-scaling-stroke"  transform=" translate(-6428.44, -4124.31)" d="M 6300 4290 C 6300 4263 6322 4220 6350 4195 C 6362 4184 6384 4155 6398 4130 C 6433 4070 6518 3957 6535 3947 C 6576 3925 6556 4000 6503 4069 C 6482 4096 6448 4146 6427 4179 C 6386 4242 6348 4285 6318 4301 C 6303 4309 6300 4307 6300 4290 z" stroke-linecap="round" />
</g>
		<g transform="matrix(0.13 0 0 -0.13 -350.83 159.48)"  >
<path style="stroke: none; stroke-width: 1; stroke-dasharray: none; stroke-linecap: butt; stroke-dashoffset: 0; stroke-linejoin: miter; stroke-miterlimit: 4; fill: rgb(0,0,0); fill-rule: nonzero; opacity: 1;" vector-effect="non-scaling-stroke"  transform=" translate(-2770.32, -4245.29)" d="M 2753 4273 C 2735 4266 2737 4235 2755 4220 C 2787 4194 2818 4238 2788 4268 C 2775 4281 2772 4281 2753 4273 z" stroke-linecap="round" />
</g>
		<g transform="matrix(0.13 0 0 -0.13 -6.97 159.9)"  >
<path style="stroke: none; stroke-width: 1; stroke-dasharray: none; stroke-linecap: butt; stroke-dashoffset: 0; stroke-linejoin: miter; stroke-miterlimit: 4; fill: rgb(0,0,0); fill-rule: nonzero; opacity: 1;" vector-effect="non-scaling-stroke"  transform=" translate(-5349.22, -4242.12)" d="M 5317 4274 C 5301 4257 5312 4229 5341 4214 C 5383 4193 5401 4209 5380 4248 C 5365 4274 5331 4288 5317 4274 z" stroke-linecap="round" />
</g>
		<g transform="matrix(0.13 0 0 -0.13 330.46 163.85)"  >
<path style="stroke: none; stroke-width: 1; stroke-dasharray: none; stroke-linecap: butt; stroke-dashoffset: 0; stroke-linejoin: miter; stroke-miterlimit: 4; fill: rgb(0,0,0); fill-rule: nonzero; opacity: 1;" vector-effect="non-scaling-stroke"  transform=" translate(-7880, -4212.5)" d="M 7862 4213 C 7864 4203 7872 4195 7880 4195 C 7888 4195 7896 4203 7898 4213 C 7900 4225 7895 4230 7880 4230 C 7865 4230 7860 4225 7862 4213 z" stroke-linecap="round" />
</g>
		<g transform="matrix(0.13 0 0 -0.13 -362.46 170.12)"  >
<path style="stroke: none; stroke-width: 1; stroke-dasharray: none; stroke-linecap: butt; stroke-dashoffset: 0; stroke-linejoin: miter; stroke-miterlimit: 4; fill: rgb(0,0,0); fill-rule: nonzero; opacity: 1;" vector-effect="non-scaling-stroke"  transform=" translate(-2683.08, -4165.47)" d="M 2654 4186 C 2643 4158 2655 4135 2681 4132 C 2712 4128 2725 4151 2710 4181 C 2698 4203 2662 4206 2654 4186 z" stroke-linecap="round" />
</g>
		<g transform="matrix(0.13 0 0 -0.13 221.77 170.41)"  >
<path style="stroke: none; stroke-width: 1; stroke-dasharray: none; stroke-linecap: butt; stroke-dashoffset: 0; stroke-linejoin: miter; stroke-miterlimit: 4; fill: rgb(0,0,0); fill-rule: nonzero; opacity: 1;" vector-effect="non-scaling-stroke"  transform=" translate(-7064.78, -4163.3)" d="M 7037 4193 C 7012 4168 7060 4109 7087 4132 C 7106 4148 7103 4178 7081 4190 C 7058 4202 7046 4203 7037 4193 z" stroke-linecap="round" />
</g>
		<g transform="matrix(0.13 0 0 -0.13 236.98 181.49)"  >
<path style="stroke: none; stroke-width: 1; stroke-dasharray: none; stroke-linecap: butt; stroke-dashoffset: 0; stroke-linejoin: miter; stroke-miterlimit: 4; fill: rgb(0,0,0); fill-rule: nonzero; opacity: 1;" vector-effect="non-scaling-stroke"  transform=" translate(-7178.86, -4080.23)" d="M 7152 4108 C 7126 4082 7150 4035 7186 4042 C 7217 4048 7226 4076 7206 4099 C 7184 4123 7169 4125 7152 4108 z" stroke-linecap="round" />
</g>
		<g transform="matrix(0.13 0 0 -0.13 -373.71 181.6)"  >
<path style="stroke: none; stroke-width: 1; stroke-dasharray: none; stroke-linecap: butt; stroke-dashoffset: 0; stroke-linejoin: miter; stroke-miterlimit: 4; fill: rgb(0,0,0); fill-rule: nonzero; opacity: 1;" vector-effect="non-scaling-stroke"  transform=" translate(-2598.69, -4079.39)" d="M 2575 4090 C 2563 4054 2595 4035 2619 4064 C 2628 4075 2627 4082 2615 4094 C 2593 4115 2583 4114 2575 4090 z" stroke-linecap="round" />
</g>
		<g transform="matrix(0.13 0 0 -0.13 -382.84 189.48)"  >
<path style="stroke: none; stroke-width: 1; stroke-dasharray: none; stroke-linecap: butt; stroke-dashoffset: 0; stroke-linejoin: miter; stroke-miterlimit: 4; fill: rgb(0,0,0); fill-rule: nonzero; opacity: 1;" vector-effect="non-scaling-stroke"  transform=" translate(-2530.2, -4020.26)" d="M 2508 4036 C 2493 4002 2504 3978 2532 3982 C 2558 3985 2568 4023 2550 4046 C 2532 4066 2521 4063 2508 4036 z" stroke-linecap="round" />
</g>
		<g transform="matrix(0.13 0 0 -0.13 261.62 194.17)"  >
<path style="stroke: none; stroke-width: 1; stroke-dasharray: none; stroke-linecap: butt; stroke-dashoffset: 0; stroke-linejoin: miter; stroke-miterlimit: 4; fill: rgb(0,0,0); fill-rule: nonzero; opacity: 1;" vector-effect="non-scaling-stroke"  transform=" translate(-7363.68, -3985.14)" d="M 7292 4042 C 7269 4027 7290 4002 7359 3961 C 7435 3915 7436 3914 7444 3935 C 7447 3945 7428 3966 7383 4000 C 7312 4054 7312 4054 7292 4042 z" stroke-linecap="round" />
</g>
		<g transform="matrix(0.13 0 0 -0.13 -398.54 199.4)"  >
<path style="stroke: none; stroke-width: 1; stroke-dasharray: none; stroke-linecap: butt; stroke-dashoffset: 0; stroke-linejoin: miter; stroke-miterlimit: 4; fill: rgb(0,0,0); fill-rule: nonzero; opacity: 1;" vector-effect="non-scaling-stroke"  transform=" translate(-2412.47, -3945.91)" d="M 2390 3950 C 2390 3926 2419 3912 2430 3930 C 2442 3949 2431 3970 2409 3970 C 2397 3970 2390 3963 2390 3950 z" stroke-linecap="round" />
</g>
		<g transform="matrix(0.13 0 0 -0.13 160.43 207.24)"  >
<path style="stroke: none; stroke-width: 1; stroke-dasharray: none; stroke-linecap: butt; stroke-dashoffset: 0; stroke-linejoin: miter; stroke-miterlimit: 4; fill: rgb(0,0,0); fill-rule: nonzero; opacity: 1;" vector-effect="non-scaling-stroke"  transform=" translate(-6604.76, -3887.12)" d="M 6560 3919 C 6560 3901 6628 3838 6640 3845 C 6657 3856 6651 3880 6624 3905 C 6596 3931 6560 3938 6560 3919 z" stroke-linecap="round" />
</g>
		<g transform="matrix(0.13 0 0 -0.13 48.63 332.62)"  >
<path style="stroke: none; stroke-width: 1; stroke-dasharray: none; stroke-linecap: butt; stroke-dashoffset: 0; stroke-linejoin: miter; stroke-miterlimit: 4; fill: rgb(0,0,0); fill-rule: nonzero; opacity: 1;" vector-effect="non-scaling-stroke"  transform=" translate(-5766.28, -2946.74)" d="M 7786 3758 C 7783 3751 7780 3719 7777 3687 C 7774 3641 7768 3624 7746 3601 L 7718 3572 L 7741 3556 C 7764 3540 7764 3540 7745 3525 C 7734 3517 7717 3505 7707 3499 C 7686 3487 7694 3470 7721 3470 C 7752 3470 7743 3446 7700 3411 C 7656 3376 7656 3356 7702 3362 C 7746 3369 7745 3355 7696 3314 C 7648 3274 7646 3260 7686 3260 C 7720 3260 7716 3245 7675 3221 C 7633 3197 7627 3165 7665 3172 C 7698 3179 7697 3170 7660 3135 C 7644 3119 7630 3103 7630 3098 C 7630 3094 7662 3090 7700 3090 L 7770 3090 L 7770 3051 L 7770 3013 L 7695 2991 C 7635 2973 7616 2971 7605 2980 C 7586 2996 7586 3018 7605 3022 C 7617 3024 7612 3037 7585 3075 C 7556 3114 7552 3126 7564 3128 C 7586 3133 7584 3148 7554 3192 C 7535 3219 7530 3233 7538 3242 C 7545 3251 7544 3261 7534 3274 C 7526 3285 7520 3304 7520 3316 C 7520 3353 7509 3370 7485 3370 C 7466 3370 7461 3362 7450 3318 C 7444 3289 7438 3251 7437 3234 C 7436 3216 7426 3193 7416 3181 C 7394 3157 7380 3060 7399 3060 C 7419 3060 7411 3039 7378 3009 C 7345 2979 7346 2972 7385 2956 C 7400 2951 7331 2881 7290 2860 C 7270 2850 7237 2838 7216 2835 L 7179 2828 L 7182 2861 L 7185 2895 L 7250 2898 C 7335 2902 7352 2915 7311 2947 C 7273 2977 7272 2990 7305 2990 C 7339 2990 7336 3003 7295 3031 C 7259 3056 7247 3077 7276 3066 C 7311 3053 7309 3074 7270 3120 C 7248 3146 7230 3171 7230 3174 C 7230 3178 7241 3178 7255 3174 C 7300 3163 7297 3196 7249 3243 L 7205 3285 L 7238 3288 C 7258 3290 7270 3297 7270 3306 C 7270 3314 7267 3320 7262 3320 C 7258 3320 7239 3334 7220 3351 L 7186 3382 L 7214 3397 L 7242 3412 L 7211 3444 C 7185 3471 7180 3484 7180 3526 C 7180 3578 7160 3620 7135 3620 C 7127 3620 7118 3610 7116 3598 C 7104 3538 7097 3492 7097 3467 C 7097 3448 7089 3433 7074 3423 C 7043 3403 7044 3392 7078 3379 L 7105 3368 L 7083 3352 C 7071 3343 7049 3327 7035 3317 C 7000 3292 7004 3280 7046 3280 C 7090 3280 7087 3272 7030 3228 C 6973 3185 6971 3164 7023 3167 L 7061 3170 L 7040 3140 C 7028 3123 7010 3106 7000 3100 C 6978 3088 6969 3065 6977 3045 C 6982 3031 6985 3031 7001 3046 C 7012 3056 7023 3061 7026 3058 C 7029 3055 7020 3043 7006 3032 C 6975 3008 6974 3002 6998 2984 C 7014 2971 7013 2968 6988 2947 C 6972 2935 6960 2919 6960 2913 C 6960 2896 7015 2887 7066 2895 L 7110 2901 L 7110 2856 C 7110 2831 7105 2808 7098 2804 C 7092 2800 7045 2785 6994 2770 L 6901 2743 L 6871 2774 C 6833 2813 6833 2819 6865 2812 C 6882 2809 6890 2812 6890 2821 C 6890 2845 6844 2934 6821 2954 C 6792 2980 6795 2990 6829 2990 C 6865 2990 6880 3009 6855 3022 C 6846 3028 6824 3045 6807 3060 L 6776 3087 L 6813 3094 C 6833 3098 6850 3105 6850 3110 C 6850 3115 6830 3133 6805 3150 C 6757 3183 6748 3200 6780 3200 C 6807 3200 6805 3222 6775 3248 C 6757 3264 6750 3281 6749 3307 C 6748 3364 6736 3394 6716 3398 C 6690 3403 6680 3383 6680 3322 C 6680 3278 6676 3265 6654 3245 C 6627 3220 6627 3190 6655 3190 C 6684 3190 6670 3168 6630 3152 C 6586 3133 6580 3109 6618 3100 C 6649 3093 6644 3081 6597 3047 C 6565 3023 6561 3016 6571 3004 C 6579 2994 6592 2991 6607 2995 C 6640 3003 6636 2990 6590 2945 C 6568 2924 6550 2903 6550 2899 C 6550 2895 6562 2890 6578 2888 L 6605 2885 L 6568 2862 C 6522 2834 6521 2823 6560 2807 L 6590 2794 L 6559 2767 C 6516 2729 6529 2717 6606 2725 L 6670 2732 L 6670 2696 C 6670 2676 6668 2660 6666 2660 C 6664 2660 6611 2644 6548 2625 C 6484 2604 6426 2591 6413 2595 C 6388 2601 6381 2630 6405 2630 C 6428 2630 6423 2654 6395 2680 C 6367 2707 6363 2720 6384 2720 C 6413 2720 6411 2743 6379 2776 C 6352 2804 6349 2810 6363 2816 C 6385 2824 6384 2835 6360 2868 C 6349 2883 6337 2919 6333 2948 C 6327 3002 6308 3034 6286 3027 C 6280 3025 6268 2988 6259 2946 C 6247 2882 6239 2864 6217 2848 C 6195 2832 6192 2825 6201 2814 C 6207 2806 6219 2800 6226 2800 C 6248 2800 6242 2782 6215 2764 C 6186 2745 6184 2732 6208 2714 C 6224 2702 6223 2699 6193 2675 C 6153 2643 6152 2632 6185 2624 C 6199 2621 6210 2614 6210 2610 C 6210 2606 6199 2595 6185 2586 C 6150 2563 6151 2530 6187 2530 C 6236 2530 6197 2510 6099 2484 C 5974 2453 5978 2452 5982 2503 L 5985 2545 L 6045 2548 C 6078 2550 6109 2555 6113 2559 C 6118 2564 6107 2584 6090 2604 L 6058 2640 L 6088 2640 C 6135 2640 6134 2655 6085 2696 C 6060 2717 6040 2737 6040 2740 C 6040 2744 6054 2745 6070 2742 C 6110 2736 6108 2748 6060 2795 C 6012 2841 6010 2851 6049 2844 C 6097 2834 6095 2857 6043 2905 L 5995 2949 L 6027 2950 C 6044 2950 6062 2955 6066 2962 C 6073 2973 6065 2981 6004 3024 L 5977 3044 L 5998 3058 C 6026 3076 6026 3097 5999 3118 C 5986 3129 5977 3151 5974 3180 C 5964 3263 5961 3272 5937 3268 C 5918 3265 5914 3258 5910 3203 C 5906 3158 5899 3135 5883 3118 C 5855 3088 5855 3082 5881 3054 L 5902 3031 L 5861 3011 C 5808 2984 5804 2950 5853 2950 L 5885 2949 L 5831 2901 C 5770 2846 5769 2824 5829 2835 L 5865 2841 L 5818 2793 C 5765 2739 5761 2730 5789 2730 C 5822 2730 5822 2712 5790 2695 C 5753 2676 5751 2653 5785 2644 L 5810 2638 L 5780 2603 C 5763 2584 5752 2565 5755 2559 C 5759 2554 5792 2550 5829 2550 C 5896 2550 5898 2549 5902 2523 C 5904 2507 5903 2482 5900 2465 C 5894 2429 5856 2413 5688 2375 L 5577 2349 L 5549 2376 C 5518 2406 5511 2426 5535 2416 C 5555 2409 5580 2419 5580 2436 C 5580 2443 5567 2457 5550 2466 C 5514 2488 5500 2515 5530 2507 C 5560 2499 5555 2525 5520 2557 C 5504 2571 5490 2586 5490 2590 C 5490 2594 5504 2595 5520 2592 C 5560 2586 5558 2598 5510 2645 C 5465 2689 5461 2700 5490 2700 C 5514 2700 5516 2722 5495 2740 C 5487 2747 5480 2763 5480 2777 C 5480 2790 5473 2814 5465 2831 C 5456 2847 5445 2886 5439 2918 C 5424 3002 5421 3010 5400 3010 C 5375 3010 5372 3003 5361 2926 C 5355 2886 5343 2850 5331 2834 C 5304 2800 5304 2780 5330 2780 C 5360 2780 5340 2746 5300 2730 C 5264 2715 5261 2693 5295 2684 C 5329 2676 5326 2664 5285 2638 C 5244 2611 5243 2586 5283 2582 C 5298 2580 5310 2576 5310 2573 C 5310 2570 5292 2547 5269 2523 C 5230 2480 5222 2451 5248 2442 C 5254 2440 5260 2445 5260 2454 C 5260 2462 5265 2472 5270 2475 C 5276 2479 5280 2470 5280 2456 C 5280 2440 5266 2414 5245 2391 C 5226 2370 5210 2350 5210 2347 C 5210 2344 5243 2340 5283 2338 C 5350 2335 5355 2333 5358 2311 C 5360 2298 5358 2284 5353 2279 C 5343 2269 5178 2234 5093 2224 L 5030 2217 L 5030 2265 L 5030 2313 L 5079 2307 C 5170 2296 5194 2318 5140 2363 C 5124 2377 5110 2391 5110 2394 C 5110 2397 5124 2400 5140 2400 C 5157 2400 5170 2404 5170 2410 C 5170 2415 5157 2435 5140 2453 C 5104 2495 5103 2500 5133 2500 C 5146 2500 5164 2506 5174 2513 C 5201 2533 5187 2562 5124 2616 C 5094 2642 5070 2666 5070 2671 C 5070 2676 5084 2680 5100 2680 C 5140 2680 5138 2692 5089 2731 L 5048 2763 L 5071 2781 L 5095 2799 L 5068 2824 C 5044 2847 5033 2881 5018 2975 C 5016 2987 5006 2996 4993 2998 C 4968 3002 4965 2994 4955 2899 C 4951 2861 4942 2836 4929 2824 C 4905 2803 4905 2791 4928 2774 C 4944 2762 4942 2758 4905 2726 L 4865 2691 L 4899 2679 L 4933 2667 L 4904 2643 C 4888 2631 4870 2620 4863 2620 C 4856 2620 4841 2599 4830 2573 L 4809 2525 L 4829 2508 C 4856 2487 4855 2479 4824 2449 C 4801 2427 4800 2425 4816 2413 C 4826 2406 4844 2403 4857 2406 C 4888 2414 4886 2407 4843 2359 C 4798 2309 4809 2297 4892 2304 L 4949 2310 L 4956 2276 C 4968 2208 4965 2206 4855 2197 L 4755 2189 L 4723 2224 C 4686 2264 4681 2280 4709 2273 C 4746 2264 4745 2293 4707 2325 C 4665 2362 4662 2370 4690 2370 C 4717 2370 4715 2392 4685 2420 C 4662 2442 4661 2445 4676 2461 C 4691 2478 4691 2481 4671 2506 C 4660 2520 4647 2554 4644 2582 C 4629 2690 4571 2679 4570 2567 C 4570 2542 4563 2524 4550 2513 C 4525 2492 4525 2482 4547 2457 C 4560 2443 4561 2436 4553 2433 C 4533 2426 4490 2389 4490 2379 C 4490 2374 4501 2368 4515 2364 C 4544 2357 4548 2335 4521 2321 C 4511 2315 4495 2299 4486 2285 C 4469 2259 4469 2258 4489 2253 C 4501 2250 4510 2242 4510 2234 C 4510 2203 4441 2192 4336 2206 L 4290 2213 L 4290 2266 L 4290 2320 L 4354 2320 C 4390 2320 4421 2324 4424 2329 C 4427 2333 4418 2348 4405 2360 C 4375 2388 4373 2410 4399 2410 C 4432 2410 4432 2428 4400 2451 C 4365 2477 4362 2490 4389 2490 C 4424 2490 4420 2506 4375 2549 C 4350 2573 4330 2596 4330 2600 C 4330 2605 4346 2606 4365 2603 C 4395 2598 4400 2600 4400 2616 C 4400 2627 4387 2644 4371 2655 C 4331 2681 4324 2710 4356 2710 C 4390 2710 4386 2720 4338 2762 C 4296 2798 4296 2799 4318 2807 L 4340 2816 L 4315 2850 C 4299 2872 4290 2897 4290 2921 C 4290 2978 4279 3021 4262 3027 C 4239 3036 4220 3001 4220 2949 C 4220 2912 4214 2894 4193 2870 L 4166 2838 L 4189 2821 L 4211 2804 L 4165 2771 C 4115 2735 4111 2717 4153 2712 C 4190 2707 4187 2695 4138 2659 C 4085 2621 4083 2605 4133 2605 C 4153 2605 4170 2603 4170 2599 C 4170 2596 4154 2579 4135 2560 C 4096 2522 4090 2500 4119 2500 C 4153 2500 4150 2485 4114 2465 C 4074 2444 4070 2425 4105 2416 C 4119 2412 4130 2406 4130 2402 C 4130 2397 4119 2383 4105 2370 C 4063 2331 4072 2320 4144 2320 L 4208 2320 L 4215 2279 C 4219 2257 4218 2234 4214 2230 C 4206 2223 4103 2234 3983 2255 C 3942 2262 3941 2278 3980 2291 C 4015 2304 4016 2309 3991 2341 C 3971 2367 3973 2390 3996 2390 C 4020 2390 4011 2415 3975 2450 C 3933 2490 3932 2500 3965 2500 C 3998 2500 3997 2510 3955 2550 C 3915 2589 3912 2600 3940 2600 C 3968 2600 3965 2625 3934 2649 C 3908 2669 3908 2671 3925 2689 C 3941 2708 3941 2710 3921 2731 C 3909 2744 3900 2767 3900 2785 C 3900 2802 3894 2825 3886 2835 C 3865 2864 3840 2838 3840 2790 C 3840 2760 3834 2747 3813 2732 L 3785 2712 L 3810 2690 C 3829 2674 3832 2667 3821 2663 C 3814 2660 3798 2648 3787 2637 L 3767 2617 L 3795 2594 L 3823 2572 L 3786 2549 C 3746 2523 3742 2497 3778 2492 C 3810 2487 3805 2469 3760 2425 C 3720 2386 3717 2370 3751 2370 C 3775 2370 3775 2361 3750 2332 C 3731 2310 3728 2309 3673 2320 C 3540 2347 3540 2346 3540 2390 L 3540 2430 L 3604 2430 C 3640 2430 3672 2435 3676 2441 C 3679 2447 3670 2464 3656 2479 C 3623 2513 3623 2520 3656 2520 C 3689 2520 3683 2539 3642 2565 C 3602 2591 3602 2600 3643 2600 L 3675 2601 L 3632 2640 C 3586 2681 3583 2700 3624 2693 C 3667 2684 3665 2710 3619 2753 C 3579 2791 3577 2795 3597 2798 C 3609 2800 3624 2807 3630 2815 C 3638 2825 3634 2833 3608 2851 C 3590 2863 3573 2875 3571 2877 C 3568 2879 3575 2887 3586 2895 C 3604 2910 3604 2911 3576 2934 C 3551 2954 3549 2961 3559 2974 C 3569 2986 3568 2994 3553 3016 C 3543 3031 3533 3067 3530 3094 C 3526 3133 3521 3146 3506 3148 C 3480 3153 3470 3133 3470 3069 C 3470 3020 3466 3009 3440 2981 C 3407 2947 3408 2930 3443 2930 C 3462 2929 3459 2924 3423 2892 C 3374 2849 3365 2814 3405 2824 C 3441 2833 3436 2822 3383 2768 L 3337 2721 L 3378 2714 C 3401 2710 3420 2706 3420 2704 C 3420 2702 3402 2684 3380 2664 C 3334 2622 3330 2610 3364 2610 C 3402 2610 3403 2595 3365 2577 C 3324 2557 3318 2530 3355 2530 C 3386 2530 3386 2525 3355 2488 C 3341 2471 3331 2452 3333 2446 C 3335 2440 3364 2434 3398 2432 C 3455 2429 3460 2427 3466 2404 C 3470 2390 3470 2376 3466 2373 C 3460 2367 3242 2425 3177 2449 C 3153 2458 3150 2465 3150 2503 L 3150 2546 L 3215 2542 C 3289 2537 3297 2547 3253 2592 L 3226 2620 L 3265 2620 L 3304 2620 L 3260 2666 L 3215 2712 L 3248 2705 C 3265 2701 3280 2702 3280 2706 C 3280 2711 3260 2733 3235 2756 C 3184 2802 3175 2826 3214 2808 C 3242 2796 3270 2803 3269 2822 C 3269 2829 3250 2849 3228 2865 C 3175 2904 3170 2918 3211 2922 C 3254 2926 3258 2944 3221 2960 C 3183 2975 3159 3001 3178 3007 C 3195 3013 3193 3034 3171 3072 C 3161 3090 3149 3132 3145 3165 C 3138 3227 3127 3250 3104 3250 C 3086 3250 3067 3174 3073 3128 C 3078 3094 3075 3089 3044 3069 C 3004 3044 3001 3024 3035 3008 C 3049 3002 3060 2994 3060 2991 C 3060 2988 3042 2975 3020 2962 C 2973 2935 2970 2923 3008 2914 C 3023 2911 3039 2907 3044 2906 C 3049 2905 3030 2889 3001 2871 C 2973 2852 2951 2832 2953 2826 C 2955 2820 2976 2813 2999 2810 L 3041 2805 L 2996 2767 C 2968 2744 2950 2721 2950 2708 C 2950 2691 2953 2690 2965 2700 C 2973 2706 2985 2710 2992 2708 C 2999 2705 2990 2695 2972 2685 C 2933 2662 2932 2653 2966 2640 C 2993 2629 2991 2615 2958 2592 C 2948 2585 2940 2572 2940 2564 C 2940 2553 2956 2550 3010 2550 L 3080 2550 L 3080 2510 C 3080 2488 3078 2470 3075 2470 C 3066 2470 2852 2548 2831 2559 C 2800 2576 2805 2590 2844 2590 C 2893 2590 2896 2604 2855 2645 C 2815 2685 2811 2700 2840 2700 C 2868 2700 2865 2717 2828 2759 L 2796 2795 L 2823 2798 C 2855 2802 2859 2825 2830 2840 C 2809 2851 2803 2884 2820 2895 C 2831 2902 2791 2980 2776 2980 C 2771 2980 2751 2964 2732 2944 L 2696 2907 L 2720 2888 L 2745 2868 L 2717 2848 C 2688 2827 2681 2800 2704 2800 C 2733 2800 2732 2777 2701 2748 C 2684 2732 2670 2717 2670 2714 C 2670 2712 2682 2705 2698 2699 L 2725 2688 L 2698 2678 C 2667 2667 2665 2659 2681 2628 C 2687 2617 2690 2606 2687 2604 C 2684 2601 2646 2608 2602 2619 C 2512 2643 2474 2645 2464 2629 C 2461 2623 2464 2612 2472 2603 C 2480 2595 2612 2548 2765 2499 C 3323 2318 3797 2206 4255 2144 C 4419 2122 4924 2118 5040 2138 C 5257 2175 5437 2216 5593 2264 C 5688 2294 5827 2335 5901 2355 C 6141 2421 6568 2553 7370 2810 C 7807 2950 8244 3079 8705 3205 C 8859 3247 9002 3286 9022 3292 C 9076 3308 9088 3360 9038 3360 C 9026 3360 8919 3333 8801 3301 C 8682 3268 8513 3223 8426 3200 C 8275 3160 8265 3159 8253 3176 C 8236 3199 8237 3207 8255 3214 C 8277 3222 8274 3235 8240 3273 C 8224 3292 8210 3310 8210 3314 C 8210 3317 8224 3320 8240 3320 C 8280 3320 8278 3336 8235 3361 C 8195 3385 8191 3399 8220 3407 C 8245 3414 8245 3415 8219 3457 C 8202 3484 8200 3494 8210 3505 C 8219 3516 8218 3525 8201 3546 C 8189 3561 8180 3583 8180 3596 C 8180 3621 8161 3670 8150 3670 C 8134 3670 8120 3643 8120 3613 C 8120 3590 8112 3571 8095 3554 C 8065 3524 8064 3515 8090 3497 C 8109 3484 8110 3481 8095 3466 C 8086 3458 8071 3446 8062 3440 C 8047 3431 8047 3428 8070 3409 L 8095 3388 L 8065 3363 C 8039 3340 8038 3337 8053 3325 C 8076 3309 8074 3293 8050 3280 C 8026 3267 8025 3257 8046 3235 C 8061 3220 8061 3218 8046 3201 C 8024 3177 8026 3155 8052 3138 C 8065 3129 8071 3117 8068 3109 C 8062 3094 7948 3055 7876 3043 C 7842 3038 7840 3039 7840 3064 C 7840 3090 7841 3090 7910 3090 C 7972 3090 7980 3092 7980 3109 C 7980 3119 7969 3135 7955 3144 C 7923 3165 7922 3184 7954 3176 C 7995 3166 7996 3190 7957 3227 C 7936 3245 7920 3262 7920 3265 C 7920 3268 7931 3270 7945 3270 C 7980 3270 7976 3281 7923 3328 C 7872 3375 7870 3386 7918 3368 C 7943 3358 7952 3358 7962 3368 C 7972 3378 7969 3384 7950 3397 C 7937 3407 7912 3427 7895 3442 L 7865 3469 L 7898 3470 C 7941 3470 7939 3490 7894 3525 L 7857 3553 L 7880 3570 L 7903 3587 L 7879 3611 C 7863 3627 7853 3654 7845 3699 C 7836 3756 7831 3765 7812 3768 C 7800 3770 7788 3765 7786 3758 z M 6805 2720 C 6824 2713 6823 2711 6797 2701 C 6781 2695 6762 2690 6754 2690 C 6734 2690 6737 2718 6758 2723 C 6782 2730 6783 2730 6805 2720 z M 5479 2334 C 5519 2326 5518 2316 5476 2303 C 5448 2294 5440 2295 5436 2307 C 5422 2341 5427 2344 5479 2334 z" stroke-linecap="round" />
</g>
		<g transform="matrix(0.13 0 0 -0.13 69.38 245.59)"  >
<path style="stroke: none; stroke-width: 1; stroke-dasharray: none; stroke-linecap: butt; stroke-dashoffset: 0; stroke-linejoin: miter; stroke-miterlimit: 4; fill: rgb(0,0,0); fill-rule: nonzero; opacity: 1;" vector-effect="non-scaling-stroke"  transform=" translate(-5921.87, -3599.5)" d="M 5873 3633 C 5866 3615 5929 3550 5955 3550 C 5990 3550 5964 3612 5920 3635 C 5884 3654 5881 3654 5873 3633 z" stroke-linecap="round" />
</g>
		<g transform="matrix(0.13 0 0 -0.13 101.92 268.13)"  >
<path style="stroke: none; stroke-width: 1; stroke-dasharray: none; stroke-linecap: butt; stroke-dashoffset: 0; stroke-linejoin: miter; stroke-miterlimit: 4; fill: rgb(0,0,0); fill-rule: nonzero; opacity: 1;" vector-effect="non-scaling-stroke"  transform=" translate(-6165.95, -3430.4)" d="M 6035 3510 C 6025 3494 6077 3453 6185 3389 C 6268 3341 6286 3334 6293 3346 C 6307 3371 6294 3388 6232 3419 C 6200 3435 6155 3464 6131 3484 C 6089 3519 6048 3530 6035 3510 z" stroke-linecap="round" />
</g>
		<g transform="matrix(0.13 0 0 -0.13 138.41 288.89)"  >
<path style="stroke: none; stroke-width: 1; stroke-dasharray: none; stroke-linecap: butt; stroke-dashoffset: 0; stroke-linejoin: miter; stroke-miterlimit: 4; fill: rgb(0,0,0); fill-rule: nonzero; opacity: 1;" vector-effect="non-scaling-stroke"  transform=" translate(-6439.58, -3274.73)" d="M 6403 3293 C 6396 3275 6432 3240 6456 3240 C 6476 3240 6484 3265 6470 3289 C 6457 3314 6412 3317 6403 3293 z" stroke-linecap="round" />
</g>
		<g transform="matrix(0.13 0 0 -0.13 -414.82 312.06)"  >
<path style="stroke: none; stroke-width: 1; stroke-dasharray: none; stroke-linecap: butt; stroke-dashoffset: 0; stroke-linejoin: miter; stroke-miterlimit: 4; fill: rgb(0,0,0); fill-rule: nonzero; opacity: 1;" vector-effect="non-scaling-stroke"  transform=" translate(-2290.36, -3100.93)" d="M 2281 3104 C 2247 3068 2221 3035 2225 3032 C 2231 3025 2312 3102 2341 3143 C 2378 3193 2343 3171 2281 3104 z" stroke-linecap="round" />
</g>
		<g transform="matrix(0.13 0 0 -0.13 437.97 314.22)"  >
<path style="stroke: none; stroke-width: 1; stroke-dasharray: none; stroke-linecap: butt; stroke-dashoffset: 0; stroke-linejoin: miter; stroke-miterlimit: 4; fill: rgb(0,0,0); fill-rule: nonzero; opacity: 1;" vector-effect="non-scaling-stroke"  transform=" translate(-8686.31, -3084.76)" d="M 8666 3099 C 8647 3072 8662 3047 8694 3052 C 8710 3054 8715 3062 8715 3085 C 8715 3122 8688 3130 8666 3099 z" stroke-linecap="round" />
</g>
		<g transform="matrix(0.13 0 0 -0.13 420.37 318.89)"  >
<path style="stroke: none; stroke-width: 1; stroke-dasharray: none; stroke-linecap: butt; stroke-dashoffset: 0; stroke-linejoin: miter; stroke-miterlimit: 4; fill: rgb(0,0,0); fill-rule: nonzero; opacity: 1;" vector-effect="non-scaling-stroke"  transform=" translate(-8554.27, -3049.74)" d="M 8530 3075 C 8514 3056 8532 3010 8554 3010 C 8577 3010 8593 3046 8580 3070 C 8567 3094 8547 3096 8530 3075 z" stroke-linecap="round" />
</g>
		<g transform="matrix(0.13 0 0 -0.13 403.45 323.29)"  >
<path style="stroke: none; stroke-width: 1; stroke-dasharray: none; stroke-linecap: butt; stroke-dashoffset: 0; stroke-linejoin: miter; stroke-miterlimit: 4; fill: rgb(0,0,0); fill-rule: nonzero; opacity: 1;" vector-effect="non-scaling-stroke"  transform=" translate(-8427.38, -3016.72)" d="M 8404 3036 C 8393 3007 8404 2985 8430 2985 C 8451 2985 8455 2990 8455 3015 C 8455 3039 8450 3046 8432 3048 C 8419 3050 8408 3045 8404 3036 z" stroke-linecap="round" />
</g>
		<g transform="matrix(0.13 0 0 -0.13 386.92 327.44)"  >
<path style="stroke: none; stroke-width: 1; stroke-dasharray: none; stroke-linecap: butt; stroke-dashoffset: 0; stroke-linejoin: miter; stroke-miterlimit: 4; fill: rgb(0,0,0); fill-rule: nonzero; opacity: 1;" vector-effect="non-scaling-stroke"  transform=" translate(-8303.39, -2985.56)" d="M 8280 3005 C 8261 2983 8272 2955 8301 2952 C 8332 2948 8345 2971 8330 3001 C 8317 3024 8297 3026 8280 3005 z" stroke-linecap="round" />
</g>
		<g transform="matrix(0.13 0 0 -0.13 326.97 353.95)"  >
<path style="stroke: none; stroke-width: 1; stroke-dasharray: none; stroke-linecap: butt; stroke-dashoffset: 0; stroke-linejoin: miter; stroke-miterlimit: 4; fill: rgb(0,0,0); fill-rule: nonzero; opacity: 1;" vector-effect="non-scaling-stroke"  transform=" translate(-7853.83, -2786.74)" d="M 7827 2814 C 7812 2799 7820 2761 7840 2755 C 7867 2747 7892 2767 7888 2794 C 7885 2815 7842 2829 7827 2814 z" stroke-linecap="round" />
</g>
		<g transform="matrix(0.13 0 0 -0.13 304.31 359.84)"  >
<path style="stroke: none; stroke-width: 1; stroke-dasharray: none; stroke-linecap: butt; stroke-dashoffset: 0; stroke-linejoin: miter; stroke-miterlimit: 4; fill: rgb(0,0,0); fill-rule: nonzero; opacity: 1;" vector-effect="non-scaling-stroke"  transform=" translate(-7683.86, -2742.63)" d="M 7662 2768 C 7632 2738 7662 2690 7699 2710 C 7731 2727 7720 2780 7685 2780 C 7679 2780 7669 2775 7662 2768 z" stroke-linecap="round" />
</g>
		<g transform="matrix(0.13 0 0 -0.13 284.01 366.83)"  >
<path style="stroke: none; stroke-width: 1; stroke-dasharray: none; stroke-linecap: butt; stroke-dashoffset: 0; stroke-linejoin: miter; stroke-miterlimit: 4; fill: rgb(0,0,0); fill-rule: nonzero; opacity: 1;" vector-effect="non-scaling-stroke"  transform=" translate(-7531.61, -2690.15)" d="M 7501 2717 C 7483 2694 7504 2648 7531 2652 C 7543 2654 7558 2663 7564 2673 C 7586 2708 7529 2749 7501 2717 z" stroke-linecap="round" />
</g>
		<g transform="matrix(0.13 0 0 -0.13 264.51 373.52)"  >
<path style="stroke: none; stroke-width: 1; stroke-dasharray: none; stroke-linecap: butt; stroke-dashoffset: 0; stroke-linejoin: miter; stroke-miterlimit: 4; fill: rgb(0,0,0); fill-rule: nonzero; opacity: 1;" vector-effect="non-scaling-stroke"  transform=" translate(-7385.35, -2640.02)" d="M 7354 2665 C 7345 2641 7367 2598 7387 2602 C 7412 2607 7427 2637 7414 2658 C 7399 2681 7362 2686 7354 2665 z" stroke-linecap="round" />
</g>
		<g transform="matrix(0.13 0 0 -0.13 227.11 384.04)"  >
<path style="stroke: none; stroke-width: 1; stroke-dasharray: none; stroke-linecap: butt; stroke-dashoffset: 0; stroke-linejoin: miter; stroke-miterlimit: 4; fill: rgb(0,0,0); fill-rule: nonzero; opacity: 1;" vector-effect="non-scaling-stroke"  transform=" translate(-7104.86, -2561.13)" d="M 7088 2589 C 7063 2575 7065 2533 7090 2525 C 7102 2521 7117 2524 7125 2530 C 7145 2546 7144 2586 7124 2594 C 7105 2601 7109 2602 7088 2589 z" stroke-linecap="round" />
</g>
		<g transform="matrix(0.13 0 0 -0.13 207.16 390.5)"  >
<path style="stroke: none; stroke-width: 1; stroke-dasharray: none; stroke-linecap: butt; stroke-dashoffset: 0; stroke-linejoin: miter; stroke-miterlimit: 4; fill: rgb(0,0,0); fill-rule: nonzero; opacity: 1;" vector-effect="non-scaling-stroke"  transform=" translate(-6955.21, -2512.66)" d="M 6925 2529 C 6917 2505 6945 2469 6966 2477 C 6985 2484 6994 2519 6980 2535 C 6962 2557 6932 2553 6925 2529 z" stroke-linecap="round" />
</g>
		<g transform="matrix(0.13 0 0 -0.13 151.52 407.25)"  >
<path style="stroke: none; stroke-width: 1; stroke-dasharray: none; stroke-linecap: butt; stroke-dashoffset: 0; stroke-linejoin: miter; stroke-miterlimit: 4; fill: rgb(0,0,0); fill-rule: nonzero; opacity: 1;" vector-effect="non-scaling-stroke"  transform=" translate(-6537.92, -2387)" d="M 6512 2388 C 6514 2360 6519 2355 6540 2355 C 6561 2355 6565 2360 6565 2385 C 6565 2410 6561 2415 6537 2418 C 6510 2421 6509 2419 6512 2388 z" stroke-linecap="round" />
</g>
		<g transform="matrix(0.13 0 0 -0.13 133.45 412.95)"  >
<path style="stroke: none; stroke-width: 1; stroke-dasharray: none; stroke-linecap: butt; stroke-dashoffset: 0; stroke-linejoin: miter; stroke-miterlimit: 4; fill: rgb(0,0,0); fill-rule: nonzero; opacity: 1;" vector-effect="non-scaling-stroke"  transform=" translate(-6402.37, -2344.27)" d="M 6386 2374 C 6359 2348 6369 2300 6401 2300 C 6431 2300 6445 2337 6425 2366 C 6407 2394 6406 2395 6386 2374 z" stroke-linecap="round" />
</g>
		<g transform="matrix(0.13 0 0 -0.13 115.17 417.18)"  >
<path style="stroke: none; stroke-width: 1; stroke-dasharray: none; stroke-linecap: butt; stroke-dashoffset: 0; stroke-linejoin: miter; stroke-miterlimit: 4; fill: rgb(0,0,0); fill-rule: nonzero; opacity: 1;" vector-effect="non-scaling-stroke"  transform=" translate(-6265.28, -2312.53)" d="M 6248 2339 C 6209 2317 6243 2260 6282 2281 C 6303 2292 6306 2320 6288 2338 C 6274 2352 6270 2352 6248 2339 z" stroke-linecap="round" />
</g>
</g>
</g>
<g transform="matrix(0.47 0 0 0.47 804.51 505.5)"  >
<g style="" vector-effect="non-scaling-stroke"   >
		<g transform="matrix(1.33 0 0 1.33 -293.65 -63.79)" clip-path="url(#CLIPPATH_6)"  >
<clipPath id="CLIPPATH_6" >
	<path transform="matrix(1 0 0 1 -0.29 -0.14) translate(-451.15, -356.35)" id="d4112c9653" clip-path="url(#undefined)" d="M 470.421875 350.480469 C 470.421875 362.898438 469.003906 366.09375 467.113281 368.496094 C 465.21875 370.902344 462.460938 373.070312 459.699219 374.332031 C 456.898438 375.554688 453.46875 376.1875 450.394531 376.027344 C 447.359375 375.832031 444.007812 374.804688 441.402344 373.191406 C 438.761719 371.613281 436.316406 369.128906 434.742188 366.527344 C 433.125 363.925781 432.097656 360.574219 431.902344 357.535156 C 431.742188 354.460938 432.375 351.03125 433.636719 348.230469 C 434.859375 345.472656 437.027344 342.710938 439.433594 340.820312 C 441.835938 338.925781 445.03125 337.507812 448.027344 336.953125 C 451.0625 336.402344 454.535156 336.601562 457.453125 337.507812 C 460.371094 338.414062 465.535156 342.394531 465.535156 342.394531" stroke-linecap="round" />
</clipPath>

</g>
		<g transform="matrix(1.33 0 0 1.33 -499.31 0)" clip-path="url(#CLIPPATH_7)"  >
<clipPath id="CLIPPATH_7" >
	<path transform="matrix(1 0 0 1 -12.27 -0.05) translate(-284.92, -404.29)" id="95" clip-path="url(#undefined)" d="M 38.867188 494.660156 L 294.496094 142.335938 L 530.976562 313.914062 L 275.34375 666.238281 Z M 38.867188 494.660156" stroke-linecap="round" />
</clipPath>
<path style="stroke: none; stroke-width: 1; stroke-dasharray: none; stroke-linecap: butt; stroke-dashoffset: 0; stroke-linejoin: miter; stroke-miterlimit: 4; fill: rgb(14,14,14); fill-rule: nonzero; opacity: 1;" vector-effect="non-scaling-stroke"  transform=" translate(-297.19, -404.34)" d="M 276.191406 665.011719 C 276.050781 665.207031 275.867188 665.355469 275.640625 665.449219 C 275.417969 665.546875 275.183594 665.578125 274.941406 665.546875 C 274.777344 665.523438 274.625 665.472656 274.480469 665.390625 C 274.335938 665.3125 274.210938 665.207031 274.105469 665.082031 C 274 664.953125 273.921875 664.8125 273.867188 664.65625 C 273.816406 664.5 273.792969 664.339844 273.800781 664.171875 L 287.078125 379.203125 L 242.203125 396.195312 C 241.976562 396.28125 241.746094 396.304688 241.507812 396.261719 C 241.269531 396.222656 241.054688 396.121094 240.871094 395.964844 C 240.6875 395.804688 240.558594 395.613281 240.480469 395.382812 C 240.402344 395.152344 240.390625 394.921875 240.4375 394.683594 L 293.5625 144.160156 C 293.597656 144 293.660156 143.847656 293.75 143.710938 C 293.839844 143.570312 293.953125 143.453125 294.085938 143.359375 C 294.222656 143.261719 294.371094 143.195312 294.53125 143.152344 C 294.691406 143.113281 294.851562 143.101562 295.015625 143.121094 C 295.183594 143.140625 295.335938 143.191406 295.484375 143.269531 C 295.628906 143.347656 295.753906 143.449219 295.863281 143.574219 C 295.972656 143.699219 296.050781 143.84375 296.105469 144 C 296.160156 144.15625 296.1875 144.316406 296.179688 144.480469 L 289.289062 350.1875 L 352.183594 326.371094 C 352.414062 326.285156 352.648438 326.261719 352.886719 326.304688 C 353.128906 326.347656 353.339844 326.449219 353.523438 326.609375 C 353.707031 326.773438 353.839844 326.96875 353.914062 327.199219 C 353.988281 327.433594 354 327.667969 353.945312 327.90625 L 276.410156 664.53125 C 276.371094 664.703125 276.296875 664.863281 276.191406 665.011719 Z M 243.53125 392.863281 L 288.027344 376.011719 C 288.128906 375.972656 288.234375 375.949219 288.34375 375.933594 C 288.453125 375.921875 288.5625 375.921875 288.667969 375.9375 C 288.777344 375.953125 288.882812 375.980469 288.984375 376.019531 C 289.085938 376.0625 289.183594 376.113281 289.273438 376.179688 C 289.359375 376.242188 289.441406 376.316406 289.511719 376.402344 C 289.582031 376.484375 289.640625 376.578125 289.6875 376.675781 C 289.734375 376.777344 289.769531 376.878906 289.792969 376.988281 C 289.8125 377.09375 289.820312 377.203125 289.816406 377.3125 L 277.125 649.621094 L 350.804688 329.722656 L 288.363281 353.363281 C 288.15625 353.441406 287.941406 353.46875 287.722656 353.441406 C 287.503906 353.410156 287.300781 353.332031 287.121094 353.203125 C 286.941406 353.074219 286.804688 352.910156 286.707031 352.710938 C 286.609375 352.511719 286.5625 352.304688 286.570312 352.082031 L 293.03125 159.4375 Z M 243.53125 392.863281" stroke-linecap="round" />
</g>
		<g transform="matrix(1.33 0 0 1.33 -364.25 -46.7)"  >
<path style="stroke: none; stroke-width: 1; stroke-dasharray: none; stroke-linecap: butt; stroke-dashoffset: 0; stroke-linejoin: miter; stroke-miterlimit: 4; fill: rgb(0,0,0); fill-rule: nonzero; opacity: 1;" vector-effect="non-scaling-stroke"  transform=" translate(-21.2, 53.52)" d="M -7.203125 0.578125 L 8.34375 -104.34375 L 49.59375 -107.625 L 46.625 -87.359375 L 26.359375 -85.734375 L 23.265625 -65.34375 L 42.703125 -66.890625 L 39.8125 -47.109375 L 20.390625 -45.5625 L 16.75 -21.5 L 38.34375 -23.21875 L 35.390625 -2.828125 Z M -7.203125 0.578125" stroke-linecap="round" />
</g>
		<g transform="matrix(1.33 0 0 1.33 -306.53 -50.87)"  >
<path style="stroke: none; stroke-width: 1; stroke-dasharray: none; stroke-linecap: butt; stroke-dashoffset: 0; stroke-linejoin: miter; stroke-miterlimit: 4; fill: rgb(0,0,0); fill-rule: nonzero; opacity: 1;" vector-effect="non-scaling-stroke"  transform=" translate(-15.07, 52.7)" d="M -7.203125 0.578125 L 8.34375 -104.34375 L 28.953125 -105.984375 L 16.109375 -18.890625 L 37.34375 -20.59375 L 34.671875 -2.765625 Z M -7.203125 0.578125" stroke-linecap="round" />
</g>
		<g transform="matrix(1.33 0 0 1.33 -234.88 -57.03)"  >
<path style="stroke: none; stroke-width: 1; stroke-dasharray: none; stroke-linecap: butt; stroke-dashoffset: 0; stroke-linejoin: miter; stroke-miterlimit: 4; fill: rgb(0,0,0); fill-rule: nonzero; opacity: 1;" vector-effect="non-scaling-stroke"  transform=" translate(-21.2, 53.52)" d="M -7.203125 0.578125 L 8.34375 -104.34375 L 49.59375 -107.625 L 46.625 -87.359375 L 26.359375 -85.734375 L 23.265625 -65.34375 L 42.703125 -66.890625 L 39.8125 -47.109375 L 20.390625 -45.5625 L 16.75 -21.5 L 38.34375 -23.21875 L 35.390625 -2.828125 Z M -7.203125 0.578125" stroke-linecap="round" />
</g>
		<g transform="matrix(1.33 0 0 1.33 -162.68 -62.79)"  >
<path style="stroke: none; stroke-width: 1; stroke-dasharray: none; stroke-linecap: butt; stroke-dashoffset: 0; stroke-linejoin: miter; stroke-miterlimit: 4; fill: rgb(0,0,0); fill-rule: nonzero; opacity: 1;" vector-effect="non-scaling-stroke"  transform=" translate(-25.93, 53.91)" d="M -7.203125 0.578125 L 8.34375 -104.34375 L 28.71875 -105.96875 L 22.546875 -63.9375 L 38.328125 -106.734375 L 59.0625 -108.390625 L 40.40625 -59.46875 L 45.9375 -3.671875 L 24.59375 -1.96875 L 20.84375 -51.875 L 13.3125 -1.0625 Z M -7.203125 0.578125" stroke-linecap="round" />
</g>
		<g transform="matrix(1.33 0 0 1.33 -87.45 -68.8)"  >
<path style="stroke: none; stroke-width: 1; stroke-dasharray: none; stroke-linecap: butt; stroke-dashoffset: 0; stroke-linejoin: miter; stroke-miterlimit: 4; fill: rgb(0,0,0); fill-rule: nonzero; opacity: 1;" vector-effect="non-scaling-stroke"  transform=" translate(-25.75, 53.89)" d="M 1.5625 -0.125 L 14.109375 -84.890625 L 1.875 -83.921875 L 4.84375 -104.0625 L 49.9375 -107.65625 L 46.96875 -87.515625 L 34.734375 -86.53125 L 22.171875 -1.765625 Z M 1.5625 -0.125" stroke-linecap="round" />
</g>
		<g transform="matrix(1.33 0 0 1.33 -26.31 -72.92)"  >
<path style="stroke: none; stroke-width: 1; stroke-dasharray: none; stroke-linecap: butt; stroke-dashoffset: 0; stroke-linejoin: miter; stroke-miterlimit: 4; fill: rgb(0,0,0); fill-rule: nonzero; opacity: 1;" vector-effect="non-scaling-stroke"  transform=" translate(-24.11, 53.19)" d="M 8.34375 -104.34375 L 40 -106.859375 C 45.039062 -107.265625 48.769531 -106.414062 51.1875 -104.3125 C 53.601562 -102.207031 54.972656 -99.097656 55.296875 -94.984375 C 55.628906 -90.867188 55.332031 -85.554688 54.40625 -79.046875 C 53.507812 -73.109375 52.054688 -68.410156 50.046875 -64.953125 C 48.035156 -61.492188 45.039062 -58.960938 41.0625 -57.359375 C 44.070312 -56.941406 46.085938 -55.53125 47.109375 -53.125 C 48.140625 -50.71875 48.351562 -47.351562 47.75 -43.03125 L 41.625 -3.328125 L 21.484375 -1.71875 L 27.484375 -42.75 C 27.984375 -45.675781 27.71875 -47.5 26.6875 -48.21875 C 25.664062 -48.945312 23.675781 -49.191406 20.71875 -48.953125 L 13.671875 -1.09375 L -7.203125 0.578125 Z M 28.53125 -67.578125 C 31.40625 -67.804688 33.316406 -71.09375 34.265625 -77.4375 C 34.679688 -80.207031 34.851562 -82.273438 34.78125 -83.640625 C 34.71875 -85.003906 34.40625 -85.925781 33.84375 -86.40625 C 33.28125 -86.882812 32.394531 -87.078125 31.1875 -86.984375 L 26.390625 -86.59375 L 23.609375 -67.1875 Z M 28.53125 -67.578125" stroke-linecap="round" />
</g>
		<g transform="matrix(1.33 0 0 1.33 51.54 -79.88)"  >
<path style="stroke: none; stroke-width: 1; stroke-dasharray: none; stroke-linecap: butt; stroke-dashoffset: 0; stroke-linejoin: miter; stroke-miterlimit: 4; fill: rgb(0,0,0); fill-rule: nonzero; opacity: 1;" vector-effect="non-scaling-stroke"  transform=" translate(-25.29, 53.85)" d="M 17.234375 -0.40625 C 8.921875 0.257812 2.984375 -1.816406 -0.578125 -6.640625 C -4.148438 -11.472656 -5.222656 -18.570312 -3.796875 -27.9375 L 3.5625 -77.890625 C 4.925781 -86.941406 8.109375 -93.9375 13.109375 -98.875 C 18.109375 -103.820312 24.769531 -106.625 33.09375 -107.28125 C 41.40625 -107.945312 47.378906 -106.148438 51.015625 -101.890625 C 54.648438 -97.640625 55.785156 -90.988281 54.421875 -81.9375 L 47.0625 -32 C 45.644531 -22.550781 42.394531 -15.085938 37.3125 -9.609375 C 32.238281 -4.128906 25.546875 -1.0625 17.234375 -0.40625 Z M 20.046875 -19.703125 C 21.878906 -19.847656 23.25 -20.757812 24.15625 -22.4375 C 25.070312 -24.125 25.734375 -26.429688 26.140625 -29.359375 L 33.75 -80.65625 C 34.0625 -82.945312 34.039062 -84.78125 33.6875 -86.15625 C 33.332031 -87.53125 32.234375 -88.144531 30.390625 -88 C 26.953125 -87.726562 24.847656 -84.941406 24.078125 -79.640625 L 16.4375 -28.46875 C 15.945312 -25.445312 15.941406 -23.191406 16.421875 -21.703125 C 16.910156 -20.210938 18.117188 -19.546875 20.046875 -19.703125 Z M 20.046875 -19.703125" stroke-linecap="round" />
</g>
		<g transform="matrix(1.33 0 0 1.33 129.87 -86.14)"  >
<path style="stroke: none; stroke-width: 1; stroke-dasharray: none; stroke-linecap: butt; stroke-dashoffset: 0; stroke-linejoin: miter; stroke-miterlimit: 4; fill: rgb(0,0,0); fill-rule: nonzero; opacity: 1;" vector-effect="non-scaling-stroke"  transform=" translate(-25.75, 53.89)" d="M 1.5625 -0.125 L 14.109375 -84.890625 L 1.875 -83.921875 L 4.84375 -104.0625 L 49.9375 -107.65625 L 46.96875 -87.515625 L 34.734375 -86.53125 L 22.171875 -1.765625 Z M 1.5625 -0.125" stroke-linecap="round" />
</g>
		<g transform="matrix(1.33 0 0 1.33 187.12 -90.7)"  >
<path style="stroke: none; stroke-width: 1; stroke-dasharray: none; stroke-linecap: butt; stroke-dashoffset: 0; stroke-linejoin: miter; stroke-miterlimit: 4; fill: rgb(0,0,0); fill-rule: nonzero; opacity: 1;" vector-effect="non-scaling-stroke"  transform=" translate(-21.2, 53.52)" d="M -7.203125 0.578125 L 8.34375 -104.34375 L 49.59375 -107.625 L 46.625 -87.359375 L 26.359375 -85.734375 L 23.265625 -65.34375 L 42.703125 -66.890625 L 39.8125 -47.109375 L 20.390625 -45.5625 L 16.75 -21.5 L 38.34375 -23.21875 L 35.390625 -2.828125 Z M -7.203125 0.578125" stroke-linecap="round" />
</g>
		<g transform="matrix(1.33 0 0 1.33 258.31 -96.37)"  >
<path style="stroke: none; stroke-width: 1; stroke-dasharray: none; stroke-linecap: butt; stroke-dashoffset: 0; stroke-linejoin: miter; stroke-miterlimit: 4; fill: rgb(0,0,0); fill-rule: nonzero; opacity: 1;" vector-effect="non-scaling-stroke"  transform=" translate(-25.17, 53.83)" d="M 16.640625 -0.359375 C 9.117188 0.242188 3.453125 -1.671875 -0.359375 -6.109375 C -4.171875 -10.554688 -5.445312 -16.976562 -4.1875 -25.375 L 2.921875 -73.734375 C 4.503906 -84.160156 7.726562 -92.179688 12.59375 -97.796875 C 17.457031 -103.421875 24.25 -106.582031 32.96875 -107.28125 C 40.5625 -107.882812 46.363281 -106.25 50.375 -102.375 C 54.382812 -98.507812 55.785156 -92.585938 54.578125 -84.609375 L 51.890625 -66.53125 L 31.390625 -64.90625 L 33.78125 -80.421875 C 34.1875 -83.429688 34.125 -85.476562 33.59375 -86.5625 C 33.0625 -87.644531 31.914062 -88.117188 30.15625 -87.984375 C 28.320312 -87.835938 26.953125 -87.082031 26.046875 -85.71875 C 25.148438 -84.351562 24.519531 -82.410156 24.15625 -79.890625 L 16.28125 -27.25 C 15.9375 -24.488281 16.054688 -22.503906 16.640625 -21.296875 C 17.222656 -20.097656 18.316406 -19.5625 19.921875 -19.6875 C 23.117188 -19.945312 25.101562 -22.722656 25.875 -28.015625 L 28.71875 -46.953125 L 49.46875 -48.609375 L 46.59375 -28.828125 C 43.96875 -11.222656 33.984375 -1.734375 16.640625 -0.359375 Z M 16.640625 -0.359375" stroke-linecap="round" />
</g>
		<g transform="matrix(1.33 0 0 1.33 335.12 -102.52)"  >
<path style="stroke: none; stroke-width: 1; stroke-dasharray: none; stroke-linecap: butt; stroke-dashoffset: 0; stroke-linejoin: miter; stroke-miterlimit: 4; fill: rgb(0,0,0); fill-rule: nonzero; opacity: 1;" vector-effect="non-scaling-stroke"  transform=" translate(-25.93, 53.91)" d="M -7.203125 0.578125 L 8.34375 -104.34375 L 28.84375 -105.96875 L 23.265625 -68.484375 L 32.984375 -69.25 L 38.546875 -106.75 L 59.0625 -108.390625 L 43.53125 -3.46875 L 23.03125 -1.84375 L 30.09375 -49.46875 L 20.375 -48.6875 L 13.3125 -1.0625 Z M -7.203125 0.578125" stroke-linecap="round" />
</g>
		<g transform="matrix(1.33 0 0 1.33 414.83 -108.88)"  >
<path style="stroke: none; stroke-width: 1; stroke-dasharray: none; stroke-linecap: butt; stroke-dashoffset: 0; stroke-linejoin: miter; stroke-miterlimit: 4; fill: rgb(0,0,0); fill-rule: nonzero; opacity: 1;" vector-effect="non-scaling-stroke"  transform=" translate(-25.87, 53.9)" d="M -7.203125 0.578125 L 8.34375 -104.34375 L 29.5625 -106.03125 L 31.59375 -56.59375 L 39.03125 -106.78125 L 58.9375 -108.375 L 43.421875 -3.46875 L 23.265625 -1.859375 L 20.71875 -53.546875 L 12.953125 -1.03125 Z M -7.203125 0.578125" stroke-linecap="round" />
</g>
		<g transform="matrix(1.33 0 0 1.33 472.73 -113.49)"  >
<path style="stroke: none; stroke-width: 1; stroke-dasharray: none; stroke-linecap: butt; stroke-dashoffset: 0; stroke-linejoin: miter; stroke-miterlimit: 4; fill: rgb(0,0,0); fill-rule: nonzero; opacity: 1;" vector-effect="non-scaling-stroke"  transform=" translate(-9.57, 52.59)" d="M -8.140625 0.65625 L 7.375 -104.265625 L 27.28125 -105.84375 L 11.765625 -0.9375 Z M -8.140625 0.65625" stroke-linecap="round" />
</g>
		<g transform="matrix(1.33 0 0 1.33 530.85 -118.14)"  >
<path style="stroke: none; stroke-width: 1; stroke-dasharray: none; stroke-linecap: butt; stroke-dashoffset: 0; stroke-linejoin: miter; stroke-miterlimit: 4; fill: rgb(0,0,0); fill-rule: nonzero; opacity: 1;" vector-effect="non-scaling-stroke"  transform=" translate(-25.93, 53.91)" d="M -7.203125 0.578125 L 8.34375 -104.34375 L 28.71875 -105.96875 L 22.546875 -63.9375 L 38.328125 -106.734375 L 59.0625 -108.390625 L 40.40625 -59.46875 L 45.9375 -3.671875 L 24.59375 -1.96875 L 20.84375 -51.875 L 13.3125 -1.0625 Z M -7.203125 0.578125" stroke-linecap="round" />
</g>
		<g transform="matrix(1.33 0 0 1.33 -273.4 133.63)"  >
<path style="stroke: none; stroke-width: 1; stroke-dasharray: none; stroke-linecap: butt; stroke-dashoffset: 0; stroke-linejoin: miter; stroke-miterlimit: 4; fill: rgb(0,0,0); fill-rule: nonzero; opacity: 1;" vector-effect="non-scaling-stroke"  transform=" translate(-23.59, 53.64)" d="M 17.125 -0.34375 C 7.757812 0.375 1.359375 -1.46875 -2.078125 -5.875 C -5.515625 -10.28125 -6.429688 -17.734375 -4.828125 -28.234375 L -3.3125 -38.484375 L 16.953125 -40.046875 L 14.953125 -26.96875 C 14.140625 -21.757812 15.375 -19.28125 18.65625 -19.53125 C 20.5 -19.675781 21.878906 -20.328125 22.796875 -21.484375 C 23.710938 -22.640625 24.351562 -24.515625 24.71875 -27.109375 C 25.257812 -30.535156 25.285156 -33.332031 24.796875 -35.5 C 24.304688 -37.675781 23.5625 -39.46875 22.5625 -40.875 C 21.570312 -42.289062 19.71875 -44.460938 17 -47.390625 L 9.46875 -55.75 C 3.6875 -62.0625 1.398438 -69.363281 2.609375 -77.65625 C 3.929688 -86.613281 6.972656 -93.585938 11.734375 -98.578125 C 16.503906 -103.566406 22.769531 -106.359375 30.53125 -106.953125 C 39.800781 -107.671875 46.101562 -105.679688 49.4375 -100.984375 C 52.769531 -96.296875 53.601562 -88.617188 51.9375 -77.953125 L 30.953125 -76.34375 L 31.96875 -83.546875 C 32.1875 -84.921875 31.984375 -85.988281 31.359375 -86.75 C 30.734375 -87.507812 29.738281 -87.835938 28.375 -87.734375 C 26.78125 -87.609375 25.492188 -87.0625 24.515625 -86.09375 C 23.546875 -85.132812 22.960938 -83.890625 22.765625 -82.359375 C 22.222656 -78.929688 23.609375 -75.539062 26.921875 -72.1875 L 37.15625 -61.375 C 39.53125 -58.832031 41.445312 -56.382812 42.90625 -54.03125 C 44.375 -51.6875 45.414062 -48.867188 46.03125 -45.578125 C 46.65625 -42.296875 46.625 -38.332031 45.9375 -33.6875 C 44.3125 -23.34375 41.238281 -15.363281 36.71875 -9.75 C 32.207031 -4.132812 25.675781 -1 17.125 -0.34375 Z M 17.125 -0.34375" stroke-linecap="round" />
</g>
		<g transform="matrix(1.33 0 0 1.33 -197.35 127.84)"  >
<path style="stroke: none; stroke-width: 1; stroke-dasharray: none; stroke-linecap: butt; stroke-dashoffset: 0; stroke-linejoin: miter; stroke-miterlimit: 4; fill: rgb(0,0,0); fill-rule: nonzero; opacity: 1;" vector-effect="non-scaling-stroke"  transform=" translate(-25.32, 53.74)" d="M 16.640625 -0.296875 C 9.117188 0.273438 3.457031 -1.664062 -0.34375 -6.125 C -4.144531 -10.582031 -5.40625 -17 -4.125 -25.375 L 3.140625 -73.71875 C 4.753906 -84.144531 8.003906 -92.160156 12.890625 -97.765625 C 17.773438 -103.367188 24.570312 -106.503906 33.28125 -107.171875 C 40.882812 -107.753906 46.679688 -106.109375 50.671875 -102.234375 C 54.671875 -98.359375 56.050781 -92.429688 54.8125 -84.453125 L 52.09375 -66.375 L 31.578125 -64.8125 L 34 -80.3125 C 34.414062 -83.332031 34.363281 -85.382812 33.84375 -86.46875 C 33.320312 -87.550781 32.179688 -88.023438 30.421875 -87.890625 C 28.585938 -87.742188 27.21875 -86.992188 26.3125 -85.640625 C 25.40625 -84.285156 24.765625 -82.34375 24.390625 -79.8125 L 16.375 -27.1875 C 16.019531 -24.4375 16.128906 -22.457031 16.703125 -21.25 C 17.285156 -20.050781 18.378906 -19.515625 19.984375 -19.640625 C 23.179688 -19.890625 25.175781 -22.648438 25.96875 -27.921875 L 28.875 -46.875 L 49.625 -48.46875 L 46.671875 -28.6875 C 44.003906 -11.09375 33.992188 -1.628906 16.640625 -0.296875 Z M 16.640625 -0.296875" stroke-linecap="round" />
</g>
		<g transform="matrix(1.33 0 0 1.33 -120.51 121.89)"  >
<path style="stroke: none; stroke-width: 1; stroke-dasharray: none; stroke-linecap: butt; stroke-dashoffset: 0; stroke-linejoin: miter; stroke-miterlimit: 4; fill: rgb(0,0,0); fill-rule: nonzero; opacity: 1;" vector-effect="non-scaling-stroke"  transform=" translate(-26.09, 53.84)" d="M -7.203125 0.546875 L 8.65625 -104.3125 L 29.171875 -105.890625 L 23.484375 -68.390625 L 33.203125 -69.140625 L 38.875 -106.640625 L 59.390625 -108.21875 L 43.546875 -3.34375 L 23.046875 -1.765625 L 30.25 -49.375 L 20.515625 -48.640625 L 13.3125 -1.015625 Z M -7.203125 0.546875" stroke-linecap="round" />
</g>
		<g transform="matrix(1.33 0 0 1.33 -41.72 100.16)"  >
<path style="stroke: none; stroke-width: 1; stroke-dasharray: none; stroke-linecap: butt; stroke-dashoffset: 0; stroke-linejoin: miter; stroke-miterlimit: 4; fill: rgb(0,0,0); fill-rule: nonzero; opacity: 1;" vector-effect="non-scaling-stroke"  transform=" translate(-25.32, 65.54)" d="M 17.109375 -0.34375 C 8.796875 0.300781 2.863281 -1.789062 -0.6875 -6.625 C -4.238281 -11.46875 -5.289062 -18.578125 -3.84375 -27.953125 L 3.671875 -77.859375 C 5.066406 -86.898438 8.269531 -93.882812 13.28125 -98.8125 C 18.300781 -103.738281 24.96875 -106.523438 33.28125 -107.171875 C 41.601562 -107.804688 47.570312 -105.988281 51.1875 -101.71875 C 54.8125 -97.457031 55.929688 -90.804688 54.546875 -81.765625 L 47.03125 -31.859375 C 45.570312 -22.410156 42.296875 -14.953125 37.203125 -9.484375 C 32.117188 -4.023438 25.421875 -0.976562 17.109375 -0.34375 Z M 19.984375 -19.640625 C 21.816406 -19.785156 23.191406 -20.695312 24.109375 -22.375 C 25.023438 -24.050781 25.691406 -26.351562 26.109375 -29.28125 L 33.859375 -80.546875 C 34.179688 -82.828125 34.164062 -84.65625 33.8125 -86.03125 C 33.457031 -87.414062 32.363281 -88.035156 30.53125 -87.890625 C 27.09375 -87.628906 24.972656 -84.851562 24.171875 -79.5625 L 16.40625 -28.40625 C 15.90625 -25.394531 15.894531 -23.144531 16.375 -21.65625 C 16.863281 -20.164062 18.066406 -19.492188 19.984375 -19.640625 Z M -2.84375 -109.34375 L -0.109375 -127.046875 L 20.890625 -128.65625 L 18.15625 -110.953125 Z M 25.59375 -111.53125 L 28.328125 -129.234375 L 49.203125 -130.84375 L 46.46875 -113.125 Z M 25.59375 -111.53125" stroke-linecap="round" />
</g>
		<g transform="matrix(1.33 0 0 1.33 36.01 109.92)"  >
<path style="stroke: none; stroke-width: 1; stroke-dasharray: none; stroke-linecap: butt; stroke-dashoffset: 0; stroke-linejoin: miter; stroke-miterlimit: 4; fill: rgb(0,0,0); fill-rule: nonzero; opacity: 1;" vector-effect="non-scaling-stroke"  transform=" translate(-25.32, 53.74)" d="M 16.640625 -0.296875 C 9.117188 0.273438 3.457031 -1.664062 -0.34375 -6.125 C -4.144531 -10.582031 -5.40625 -17 -4.125 -25.375 L 3.140625 -73.71875 C 4.753906 -84.144531 8.003906 -92.160156 12.890625 -97.765625 C 17.773438 -103.367188 24.570312 -106.503906 33.28125 -107.171875 C 40.882812 -107.753906 46.679688 -106.109375 50.671875 -102.234375 C 54.671875 -98.359375 56.050781 -92.429688 54.8125 -84.453125 L 52.09375 -66.375 L 31.578125 -64.8125 L 34 -80.3125 C 34.414062 -83.332031 34.363281 -85.382812 33.84375 -86.46875 C 33.320312 -87.550781 32.179688 -88.023438 30.421875 -87.890625 C 28.585938 -87.742188 27.21875 -86.992188 26.3125 -85.640625 C 25.40625 -84.285156 24.765625 -82.34375 24.390625 -79.8125 L 16.375 -27.1875 C 16.019531 -24.4375 16.128906 -22.457031 16.703125 -21.25 C 17.285156 -20.050781 18.378906 -19.515625 19.984375 -19.640625 C 23.179688 -19.890625 25.175781 -22.648438 25.96875 -27.921875 L 28.875 -46.875 L 49.625 -48.46875 L 46.671875 -28.6875 C 44.003906 -11.09375 33.992188 -1.628906 16.640625 -0.296875 Z M 16.640625 -0.296875" stroke-linecap="round" />
</g>
		<g transform="matrix(1.33 0 0 1.33 112.85 103.97)"  >
<path style="stroke: none; stroke-width: 1; stroke-dasharray: none; stroke-linecap: butt; stroke-dashoffset: 0; stroke-linejoin: miter; stroke-miterlimit: 4; fill: rgb(0,0,0); fill-rule: nonzero; opacity: 1;" vector-effect="non-scaling-stroke"  transform=" translate(-26.09, 53.84)" d="M -7.203125 0.546875 L 8.65625 -104.3125 L 29.046875 -105.890625 L 22.734375 -63.875 L 38.640625 -106.625 L 59.390625 -108.21875 L 40.578125 -59.34375 L 45.9375 -3.53125 L 24.59375 -1.890625 L 21 -51.8125 L 13.3125 -1.015625 Z M -7.203125 0.546875" stroke-linecap="round" />
</g>
		<g transform="matrix(1.33 0 0 1.33 173.69 99.71)"  >
<path style="stroke: none; stroke-width: 1; stroke-dasharray: none; stroke-linecap: butt; stroke-dashoffset: 0; stroke-linejoin: miter; stroke-miterlimit: 4; fill: rgb(0,0,0); fill-rule: nonzero; opacity: 1;" vector-effect="non-scaling-stroke"  transform=" translate(-15.1, 52.68)" d="M -7.203125 0.546875 L 8.65625 -104.3125 L 29.28125 -105.90625 L 16.171875 -18.859375 L 37.40625 -20.484375 L 34.671875 -2.65625 Z M -7.203125 0.546875" stroke-linecap="round" />
</g>
		<g transform="matrix(1.33 0 0 1.33 237.19 94.84)"  >
<path style="stroke: none; stroke-width: 1; stroke-dasharray: none; stroke-linecap: butt; stroke-dashoffset: 0; stroke-linejoin: miter; stroke-miterlimit: 4; fill: rgb(0,0,0); fill-rule: nonzero; opacity: 1;" vector-effect="non-scaling-stroke"  transform=" translate(-15.1, 52.68)" d="M -7.203125 0.546875 L 8.65625 -104.3125 L 29.28125 -105.90625 L 16.171875 -18.859375 L 37.40625 -20.484375 L 34.671875 -2.65625 Z M -7.203125 0.546875" stroke-linecap="round" />
</g>
		<g transform="matrix(1.33 0 0 1.33 307.76 89.01)"  >
<path style="stroke: none; stroke-width: 1; stroke-dasharray: none; stroke-linecap: butt; stroke-dashoffset: 0; stroke-linejoin: miter; stroke-miterlimit: 4; fill: rgb(0,0,0); fill-rule: nonzero; opacity: 1;" vector-effect="non-scaling-stroke"  transform=" translate(-20.41, 53.39)" d="M -9.953125 0.765625 L 15.859375 -104.875 L 50.765625 -107.546875 L 44.75 -3.4375 L 25.1875 -1.9375 L 26.3125 -18.796875 L 13.828125 -17.828125 L 10.078125 -0.78125 Z M 17.96875 -34.6875 L 27.328125 -35.40625 L 30.75 -88.390625 L 29.78125 -88.328125 Z M 17.96875 -34.6875" stroke-linecap="round" />
</g>
		<g transform="matrix(1.33 0 0 1.33 392.84 82.47)"  >
<path style="stroke: none; stroke-width: 1; stroke-dasharray: none; stroke-linecap: butt; stroke-dashoffset: 0; stroke-linejoin: miter; stroke-miterlimit: 4; fill: rgb(0,0,0); fill-rule: nonzero; opacity: 1;" vector-effect="non-scaling-stroke"  transform=" translate(-26.03, 53.83)" d="M -7.203125 0.546875 L 8.65625 -104.3125 L 29.890625 -105.953125 L 31.75 -56.5 L 39.359375 -106.671875 L 59.265625 -108.203125 L 43.4375 -3.328125 L 23.28125 -1.78125 L 20.859375 -53.484375 L 12.96875 -1 Z M -7.203125 0.546875" stroke-linecap="round" />
</g>
		<g transform="matrix(1.33 0 0 1.33 470.37 77.42)"  >
<path style="stroke: none; stroke-width: 1; stroke-dasharray: none; stroke-linecap: butt; stroke-dashoffset: 0; stroke-linejoin: miter; stroke-miterlimit: 4; fill: rgb(0,0,0); fill-rule: nonzero; opacity: 1;" vector-effect="non-scaling-stroke"  transform=" translate(-24.44, 53.03)" d="M 8.65625 -104.3125 L 37.078125 -106.5 C 44.429688 -107.0625 49.644531 -105.410156 52.71875 -101.546875 C 55.789062 -97.679688 56.753906 -91.679688 55.609375 -83.546875 L 48.390625 -34.46875 C 46.859375 -24.144531 43.910156 -16.238281 39.546875 -10.75 C 35.179688 -5.269531 28.835938 -2.210938 20.515625 -1.578125 L -7.203125 0.546875 Z M 19.953125 -19.875 C 23.710938 -20.164062 25.890625 -22.1875 26.484375 -25.9375 L 34.640625 -80 C 35.023438 -82.363281 35.113281 -84.117188 34.90625 -85.265625 C 34.695312 -86.421875 34.15625 -87.164062 33.28125 -87.5 C 32.414062 -87.832031 30.976562 -87.921875 28.96875 -87.765625 L 26.703125 -87.59375 L 16.359375 -19.59375 Z M 19.953125 -19.875" stroke-linecap="round" />
</g>
</g>
</g>
</svg>